<?xml version="1.0" encoding="UTF-8" standalone="no"?>
<svg width="1024" height="1024" viewBox="0 0 1024 1024" xmlns="http://www.w3.org/2000/svg" version="1.1">
  <g fill="white">
    <path d="M 498,975 Z" /><path d="M 505,973 Z" /><path d="M 539,972 Z" /><path d="M 511,972 L 510,973 Z" /><path d="M 497,972 Z" /><path d="M 515,971 Z" /><path d="M 507,971 Z" /><path d="M 526,970 L 525,971 Z" /><path d="M 509,970 Z" /><path d="M 501,970 Z" /><path d="M 539,969 Z" /><path d="M 515,969 L 516,969 Z" /><path d="M 552,967 Z" /><path d="M 561,966 Z" /><path d="M 474,966 Z" /><path d="M 472,966 L 472,967 Z" /><path d="M 473,964 Z" /><path d="M 571,963 Z" /><path d="M 569,963 Z" /><path d="M 567,963 Z" /><path d="M 569,961 Z" /><path d="M 574,959 Z" /><path d="M 572,959 Z" /><path d="M 466,959 Z" /><path d="M 464,959 Z" /><path d="M 462,957 L 463,957 Z" /><path d="M 587,956 Z" /><path d="M 584,955 L 584,956 Z" /><path d="M 448,955 Z" /><path d="M 453,954 L 453,955 L 454,956 L 455,956 Z" /><path d="M 587,953 L 587,954 Z" /><path d="M 441,950 Z" /><path d="M 436,950 L 436,951 Z" /><path d="M 597,949 L 598,949 L 600,951 L 598,949 Z" /><path d="M 602,947 Z" /><path d="M 442,947 Z" /><path d="M 434,945 L 435,946 L 435,947 L 435,946 Z" /><path d="M 427,945 Z" /><path d="M 616,944 Z" /><path d="M 606,943 Z" /><path d="M 609,942 L 611,942 Z" /><path d="M 419,942 Z" /><path d="M 616,939 Z" /><path d="M 417,939 L 416,940 Z" /><path d="M 622,935 Z" /><path d="M 413,935 Z" /><path d="M 404,935 Z" /><path d="M 400,928 L 401,928 Z" /><path d="M 630,927 L 631,927 Z" /><path d="M 396,926 Z" /><path d="M 637,924 Z" /><path d="M 635,924 Z" /><path d="M 635,921 Z" /><path d="M 395,921 L 395,922 Z" /><path d="M 392,921 Z" /><path d="M 386,919 Z" /><path d="M 641,918 Z" /><path d="M 643,916 Z" /><path d="M 640,915 L 640,916 L 641,916 Z" /><path d="M 386,915 Z" /><path d="M 377,913 Z" /><path d="M 384,912 L 383,913 Z" /><path d="M 652,911 Z" /><path d="M 649,910 L 648,911 Z" /><path d="M 372,909 Z" /><path d="M 650,905 Z" /><path d="M 372,904 L 371,905 Z" /><path d="M 657,902 Z" /><path d="M 659,898 L 659,899 Z" /><path d="M 364,898 Z" /><path d="M 362,897 Z" /><path d="M 357,895 Z" /><path d="M 354,895 Z" /><path d="M 358,893 Z" /><path d="M 667,892 Z" /><path d="M 353,892 Z" /><path d="M 349,891 Z" /><path d="M 674,887 Z" /><path d="M 351,886 L 350,887 L 351,887 L 352,888 L 351,887 Z" /><path d="M 673,882 Z" /><path d="M 347,881 Z" /><path d="M 678,879 Z" /><path d="M 340,878 L 341,878 Z" /><path d="M 681,876 Z" /><path d="M 332,871 Z" /><path d="M 331,867 L 332,868 Z" /><path d="M 685,865 L 687,867 Z" /><path d="M 330,864 Z" /><path d="M 324,863 Z" /><path d="M 691,861 L 691,862 L 692,861 Z" /><path d="M 693,858 L 694,859 Z" /><path d="M 323,857 Z" /><path d="M 703,854 Z" /><path d="M 700,853 Z" /><path d="M 321,853 Z" /><path d="M 316,853 Z" /><path d="M 705,852 Z" /><path d="M 319,852 Z" /><path d="M 703,851 L 702,852 Z" /><path d="M 320,850 Z" /><path d="M 318,850 Z" /><path d="M 699,849 L 699,850 L 700,850 Z" /><path d="M 323,849 Z" /><path d="M 315,849 Z" /><path d="M 703,847 Z" /><path d="M 705,845 Z" /><path d="M 318,845 Z" /><path d="M 314,844 L 316,846 L 315,845 L 316,844 L 315,845 Z" /><path d="M 709,843 Z" /><path d="M 313,842 Z" /><path d="M 309,842 Z" /><path d="M 307,841 Z" /><path d="M 717,838 Z" /><path d="M 713,838 Z" /><path d="M 302,837 Z" /><path d="M 723,827 Z" /><path d="M 302,827 L 303,828 L 303,829 L 303,827 Z" /><path d="M 299,827 Z" /><path d="M 296,827 Z" /><path d="M 301,825 Z" /><path d="M 297,824 Z" /><path d="M 720,823 L 719,824 L 719,825 L 718,826 L 717,826 L 718,827 L 719,827 L 718,826 L 720,824 Z" /><path d="M 722,822 Z" /><path d="M 294,818 Z" /><path d="M 292,818 Z" /><path d="M 289,814 Z" /><path d="M 731,809 Z" /><path d="M 732,806 Z" /><path d="M 284,806 Z" /><path d="M 739,798 Z" /><path d="M 281,795 L 281,796 Z" /><path d="M 742,791 L 741,792 Z" /><path d="M 745,790 Z" /><path d="M 749,789 Z" /><path d="M 747,789 Z" /><path d="M 273,788 Z" /><path d="M 751,787 Z" /><path d="M 756,782 Z" /><path d="M 758,777 L 758,778 Z" /><path d="M 264,776 L 265,777 Z" /><path d="M 762,769 Z" /><path d="M 257,768 Z" /><path d="M 767,766 Z" /><path d="M 257,766 Z" /><path d="M 254,765 L 254,766 Z" /><path d="M 249,764 Z" /><path d="M 771,762 L 771,763 Z" /><path d="M 248,755 Z" /><path d="M 248,753 Z" /><path d="M 775,752 L 775,753 L 774,754 L 775,753 Z" /><path d="M 245,750 L 246,751 Z" /><path d="M 775,749 L 776,749 Z" /><path d="M 247,749 Z" /><path d="M 775,747 Z" /><path d="M 244,746 Z" /><path d="M 781,743 Z" /><path d="M 789,733 Z" /><path d="M 232,732 L 233,733 L 233,732 Z" /><path d="M 229,728 Z" /><path d="M 228,726 Z" /><path d="M 228,724 Z" /><path d="M 791,721 L 790,722 L 789,722 L 790,722 Z" /><path d="M 224,720 Z" /><path d="M 221,716 Z" /><path d="M 795,715 L 796,716 Z" /><path d="M 802,711 Z" /><path d="M 211,705 Z" /><path d="M 805,704 L 806,705 Z" /><path d="M 212,702 Z" /><path d="M 811,699 Z" /><path d="M 815,691 Z" /><path d="M 817,690 Z" /><path d="M 204,687 Z" /><path d="M 818,683 Z" /><path d="M 202,681 Z" /><path d="M 820,678 Z" /><path d="M 818,678 L 818,679 Z" /><path d="M 196,678 Z" /><path d="M 198,677 Z" /><path d="M 825,670 Z" /><path d="M 826,666 L 825,667 Z" /><path d="M 186,663 Z" /><path d="M 832,660 Z" /><path d="M 188,660 Z" /><path d="M 184,660 Z" /><path d="M 187,657 Z" /><path d="M 834,655 Z" /><path d="M 180,654 Z" /><path d="M 833,653 Z" /><path d="M 837,651 Z" /><path d="M 839,649 Z" /><path d="M 844,644 L 844,645 Z" /><path d="M 174,643 Z" /><path d="M 846,641 Z" /><path d="M 852,639 Z" /><path d="M 849,639 Z" /><path d="M 851,632 Z" /><path d="M 168,629 L 168,630 L 169,631 L 170,631 L 170,629 Z" /><path d="M 166,626 Z" /><path d="M 160,624 Z" /><path d="M 164,622 L 164,623 Z" /><path d="M 162,621 Z" /><path d="M 859,617 Z" /><path d="M 864,615 Z" /><path d="M 160,615 L 160,616 Z" /><path d="M 158,615 Z" /><path d="M 156,615 Z" /><path d="M 863,612 Z" /><path d="M 156,612 L 156,613 Z" /><path d="M 864,608 Z" /><path d="M 866,606 L 866,607 Z" /><path d="M 867,602 L 867,604 Z" /><path d="M 151,601 L 150,602 L 151,602 L 152,603 L 151,602 Z" /><path d="M 145,598 Z" /><path d="M 873,594 Z" /><path d="M 146,593 L 147,593 Z" /><path d="M 875,590 L 876,591 Z" /><path d="M 876,588 Z" /><path d="M 141,586 Z" /><path d="M 877,585 Z" /><path d="M 131,581 L 132,582 Z" /><path d="M 137,580 Z" /><path d="M 134,579 L 135,579 Z" /><path d="M 131,578 Z" /><path d="M 136,577 Z" /><path d="M 134,577 Z" /><path d="M 134,575 Z" /><path d="M 132,574 L 132,575 Z" /><path d="M 886,572 Z" /><path d="M 131,571 L 132,572 Z" /><path d="M 887,570 Z" /><path d="M 131,569 Z" /><path d="M 128,568 Z" /><path d="M 125,565 Z" /><path d="M 891,564 Z" /><path d="M 891,561 Z" /><path d="M 894,558 Z" /><path d="M 895,555 Z" /><path d="M 118,549 Z" /><path d="M 116,549 Z" /><path d="M 115,547 Z" /><path d="M 118,543 Z" /><path d="M 115,543 Z" /><path d="M 908,542 Z" /><path d="M 116,541 Z" /><path d="M 115,539 L 114,540 Z" /><path d="M 111,536 Z" /><path d="M 106,535 Z" /><path d="M 908,533 L 907,534 L 908,534 Z" /><path d="M 910,530 L 909,531 L 910,530 L 911,531 L 911,530 Z" /><path d="M 104,530 Z" /><path d="M 912,528 Z" /><path d="M 106,527 Z" /><path d="M 103,523 Z" /><path d="M 918,516 L 918,517 L 919,517 Z" /><path d="M 99,516 Z" /><path d="M 101,515 L 101,517 L 102,518 L 102,517 L 101,516 Z" /><path d="M 919,514 Z" /><path d="M 923,513 Z" /><path d="M 96,512 L 95,513 L 96,513 Z" /><path d="M 94,511 Z" /><path d="M 921,509 Z" /><path d="M 94,507 Z" /><path d="M 91,507 Z" /><path d="M 923,506 L 923,507 Z" /><path d="M 91,505 Z" /><path d="M 88,504 Z" /><path d="M 924,502 Z" /><path d="M 927,497 Z" /><path d="M 85,493 Z" /><path d="M 931,492 Z" /><path d="M 86,490 Z" /><path d="M 83,490 Z" /><path d="M 80,488 L 79,489 Z" /><path d="M 934,485 Z" /><path d="M 934,483 Z" /><path d="M 940,480 Z" /><path d="M 80,480 Z" /><path d="M 79,476 Z" /><path d="M 76,474 Z" /><path d="M 938,473 L 939,473 Z" /><path d="M 74,473 Z" /><path d="M 75,465 L 75,467 Z" /><path d="M 73,465 Z" /><path d="M 64,456 Z" /><path d="M 956,454 Z" /><path d="M 952,452 Z" /><path d="M 953,448 Z" /><path d="M 957,446 Z" /><path d="M 954,446 Z" /><path d="M 63,445 Z" /><path d="M 65,443 L 65,446 L 65,445 L 66,444 Z" /><path d="M 955,442 L 955,444 L 955,443 L 956,442 Z" /><path d="M 959,441 Z" /><path d="M 57,435 L 58,435 Z" /><path d="M 56,432 Z" /><path d="M 57,427 Z" /><path d="M 963,424 Z" /><path d="M 53,417 Z" /><path d="M 50,414 L 50,415 Z" /><path d="M 52,409 Z" /><path d="M 47,405 L 49,405 Z" /><path d="M 969,404 Z" /><path d="M 968,402 Z" /><path d="M 48,398 L 48,399 Z" /><path d="M 971,397 Z" /><path d="M 972,393 Z" /><path d="M 43,387 Z" /><path d="M 971,385 Z" /><path d="M 44,381 L 43,382 Z" /><path d="M 975,378 Z" /><path d="M 40,372 Z" /><path d="M 977,371 Z" /><path d="M 43,369 Z" /><path d="M 977,366 Z" /><path d="M 40,363 L 41,364 Z" /><path d="M 40,357 L 41,358 L 42,357 L 43,358 L 44,358 L 44,357 L 42,357 L 41,358 Z" /><path d="M 979,355 Z" /><path d="M 975,353 L 976,354 Z" /><path d="M 42,353 L 43,354 L 43,355 L 43,354 Z" /><path d="M 980,351 Z" /><path d="M 977,350 Z" /><path d="M 42,350 L 42,351 Z" /><path d="M 41,347 L 42,348 Z" /><path d="M 42,343 L 43,344 Z" /><path d="M 44,341 Z" /><path d="M 40,340 Z" /><path d="M 40,338 L 41,338 Z" /><path d="M 975,337 L 974,338 L 975,338 L 976,339 L 975,338 Z" /><path d="M 44,332 L 43,333 L 44,334 L 43,333 Z" /><path d="M 41,331 Z" /><path d="M 974,330 L 974,331 Z" /><path d="M 977,328 Z" /><path d="M 44,328 L 43,329 Z" /><path d="M 46,327 Z" /><path d="M 973,324 L 973,325 L 974,325 L 975,324 L 974,325 Z" /><path d="M 973,320 Z" /><path d="M 972,317 Z" /><path d="M 46,311 Z" /><path d="M 973,308 Z" /><path d="M 969,302 Z" /><path d="M 46,301 Z" /><path d="M 967,296 L 967,297 L 968,296 Z" /><path d="M 965,295 Z" /><path d="M 51,293 Z" /><path d="M 964,292 Z" /><path d="M 966,288 Z" /><path d="M 964,287 Z" /><path d="M 50,287 L 51,287 Z" /><path d="M 965,284 L 964,285 Z" /><path d="M 963,282 Z" /><path d="M 963,280 Z" /><path d="M 52,278 Z" /><path d="M 59,273 Z" /><path d="M 959,272 Z" /><path d="M 956,270 L 956,271 L 957,272 L 956,271 Z" /><path d="M 60,270 L 59,271 L 58,271 L 61,271 Z" /><path d="M 58,269 Z" /><path d="M 953,268 L 952,269 L 953,269 Z" /><path d="M 61,267 Z" /><path d="M 952,264 Z" /><path d="M 956,260 Z" /><path d="M 952,258 L 952,259 Z" /><path d="M 950,257 Z" /><path d="M 64,256 L 64,257 Z" /><path d="M 948,254 L 947,255 Z" /><path d="M 65,249 Z" /><path d="M 66,247 Z" /><path d="M 948,246 Z" /><path d="M 69,246 L 68,247 Z" /><path d="M 942,245 Z" /><path d="M 939,240 Z" /><path d="M 73,238 L 74,238 Z" /><path d="M 73,235 L 74,235 Z" /><path d="M 936,234 L 937,234 Z" /><path d="M 937,232 Z" /><path d="M 74,232 L 75,233 L 76,233 L 75,233 Z" /><path d="M 932,231 Z" /><path d="M 80,229 L 81,229 Z" /><path d="M 934,226 Z" /><path d="M 931,226 L 929,228 L 929,229 L 929,228 Z" /><path d="M 85,226 Z" /><path d="M 83,226 L 83,227 Z" /><path d="M 928,224 Z" /><path d="M 84,222 Z" /><path d="M 924,221 Z" /><path d="M 99,212 Z" /><path d="M 915,211 Z" /><path d="M 913,206 Z" /><path d="M 106,206 Z" /><path d="M 910,204 Z" /><path d="M 912,203 Z" /><path d="M 109,202 Z" /><path d="M 116,198 Z" /><path d="M 100,198 Z" /><path d="M 902,195 L 902,198 Z" /><path d="M 120,194 Z" /><path d="M 899,193 Z" /><path d="M 122,192 Z" /><path d="M 897,189 Z" /><path d="M 121,189 Z" /><path d="M 891,186 Z" /><path d="M 128,184 Z" /><path d="M 889,182 Z" /><path d="M 892,181 Z" /><path d="M 883,181 L 884,182 L 885,181 Z" /><path d="M 139,179 Z" /><path d="M 883,178 Z" /><path d="M 881,178 Z" /><path d="M 150,173 L 149,174 L 148,174 L 147,175 L 146,175 L 147,175 L 148,174 L 151,174 Z" /><path d="M 871,171 Z" /><path d="M 158,170 Z" /><path d="M 867,169 L 867,170 Z" /><path d="M 154,169 Z" /><path d="M 156,166 L 156,167 Z" /><path d="M 148,166 Z" /><path d="M 868,165 Z" /><path d="M 864,164 Z" /><path d="M 857,163 Z" /><path d="M 165,163 Z" /><path d="M 864,162 Z" /><path d="M 163,162 Z" /><path d="M 172,158 Z" /><path d="M 859,156 Z" /><path d="M 177,156 Z" /><path d="M 171,156 Z" /><path d="M 851,154 Z" /><path d="M 179,154 Z" /><path d="M 175,154 Z" /><path d="M 848,152 Z" /><path d="M 844,150 Z" /><path d="M 837,147 Z" /><path d="M 832,144 Z" /><path d="M 828,143 Z" /><path d="M 202,143 Z" /><path d="M 196,141 Z" /><path d="M 195,139 Z" /><path d="M 804,134 Z" /><path d="M 801,132 Z" /><path d="M 794,129 L 795,129 L 796,130 L 795,131 L 796,130 L 797,131 L 798,130 L 797,131 L 795,129 Z" /><path d="M 800,128 Z" /><path d="M 791,128 Z" /><path d="M 237,127 L 237,128 Z" /><path d="M 244,126 Z" /><path d="M 241,126 Z" /><path d="M 781,125 L 780,126 L 778,126 L 778,127 L 779,126 L 780,126 Z" /><path d="M 247,125 L 246,126 Z" /><path d="M 243,124 Z" /><path d="M 777,123 Z" /><path d="M 249,123 Z" /><path d="M 772,122 Z" /><path d="M 240,120 Z" /><path d="M 272,119 Z" /><path d="M 256,119 Z" /><path d="M 761,118 Z" /><path d="M 752,118 Z" /><path d="M 266,117 L 265,118 Z" /><path d="M 751,116 L 749,118 Z" /><path d="M 743,116 L 743,117 L 742,118 L 743,117 L 744,117 Z" /><path d="M 283,116 Z" /><path d="M 268,116 L 268,117 L 271,117 L 271,116 L 270,117 L 269,117 Z" /><path d="M 257,116 Z" /><path d="M 738,115 Z" /><path d="M 281,115 Z" /><path d="M 279,115 Z" /><path d="M 742,114 Z" /><path d="M 299,114 Z" /><path d="M 751,113 Z" /><path d="M 735,113 L 734,114 L 733,114 L 734,114 L 735,115 L 736,115 L 735,115 L 734,114 Z" /><path d="M 731,113 Z" /><path d="M 315,113 Z" /><path d="M 312,113 Z" /><path d="M 308,113 Z" /><path d="M 295,113 L 294,114 L 295,113 L 296,113 Z" /><path d="M 291,113 Z" /><path d="M 288,113 Z" /><path d="M 727,112 Z" /><path d="M 628,112 L 629,112 Z" /><path d="M 619,112 Z" /><path d="M 345,112 Z" /><path d="M 597,111 Z" /><path d="M 338,111 Z" /><path d="M 334,111 Z" /><path d="M 330,111 Z" /><path d="M 322,111 Z" /><path d="M 300,111 Z" /><path d="M 724,110 Z" /><path d="M 710,110 Z" /><path d="M 665,110 Z" /><path d="M 628,110 Z" /><path d="M 586,110 L 587,110 Z" /><path d="M 398,110 Z" /><path d="M 314,110 Z" /><path d="M 716,109 Z" /><path d="M 670,109 Z" /><path d="M 623,109 Z" /><path d="M 607,109 Z" /><path d="M 605,109 Z" /><path d="M 602,109 Z" /><path d="M 582,109 Z" /><path d="M 356,109 Z" /><path d="M 340,109 Z" /><path d="M 711,108 Z" /><path d="M 704,108 L 703,109 Z" /><path d="M 632,108 L 631,109 L 632,109 Z" /><path d="M 595,108 L 595,109 Z" /><path d="M 593,108 Z" /><path d="M 555,108 Z" /><path d="M 440,108 L 441,108 Z" /><path d="M 428,108 L 428,109 Z" /><path d="M 408,108 L 407,109 L 406,109 L 407,109 Z" /><path d="M 403,108 Z" /><path d="M 396,108 Z" /><path d="M 696,107 Z" /><path d="M 689,107 Z" /><path d="M 672,107 Z" /><path d="M 649,107 Z" /><path d="M 643,107 L 643,108 Z" /><path d="M 557,107 L 558,107 Z" /><path d="M 443,107 Z" /><path d="M 424,107 L 425,108 L 426,107 L 425,108 Z" /><path d="M 375,107 Z" /><path d="M 369,107 L 368,108 L 369,107 L 370,107 Z" /><path d="M 363,107 Z" /><path d="M 680,106 L 679,107 Z" /><path d="M 659,106 Z" /><path d="M 646,106 Z" /><path d="M 568,106 L 569,107 L 568,108 L 569,107 Z" /><path d="M 553,106 Z" /><path d="M 515,106 Z" /><path d="M 513,106 Z" /><path d="M 458,106 Z" /><path d="M 454,106 Z" /><path d="M 402,106 L 401,107 L 402,106 L 403,106 Z" /><path d="M 711,105 Z" /><path d="M 682,105 Z" /><path d="M 675,105 Z" /><path d="M 551,105 Z" /><path d="M 543,105 Z" /><path d="M 449,105 Z" /><path d="M 442,105 Z" /><path d="M 417,105 L 416,106 L 415,106 L 416,106 Z" /><path d="M 296,105 Z" /><path d="M 537,104 L 538,105 L 539,105 L 538,105 Z" /><path d="M 534,104 L 535,105 L 535,106 L 535,105 Z" /><path d="M 521,104 Z" /><path d="M 517,104 Z" /><path d="M 512,104 Z" /><path d="M 465,104 L 466,105 Z" /><path d="M 419,104 Z" /><path d="M 616,103 Z" /><path d="M 493,103 Z" /><path d="M 491,103 L 490,104 L 488,104 L 490,104 Z" /><path d="M 470,103 L 471,104 L 471,105 L 471,104 L 472,103 L 471,104 Z" /><path d="M 452,103 Z" /><path d="M 524,102 L 524,103 Z" /><path d="M 510,102 L 510,103 Z" /><path d="M 476,102 Z" /><path d="M 526,101 Z" /><path d="M 502,101 Z" /><path d="M 500,101 L 499,102 L 500,103 L 501,103 L 502,104 L 502,106 L 503,107 L 502,108 L 500,108 L 499,107 L 500,106 L 499,105 L 497,105 L 496,104 L 497,103 L 496,103 L 496,104 L 493,107 L 492,107 L 491,106 L 492,105 L 490,107 L 489,106 L 486,106 L 485,105 L 485,104 L 484,103 L 484,102 L 483,102 L 482,103 L 483,102 L 485,104 L 485,106 L 484,107 L 483,106 L 483,105 L 482,106 L 480,104 L 480,103 L 479,104 L 478,103 L 480,105 L 479,106 L 479,107 L 478,108 L 477,107 L 478,108 L 477,109 L 476,109 L 474,107 L 476,105 L 475,104 L 474,104 L 475,105 L 475,106 L 474,107 L 469,107 L 468,106 L 468,105 L 468,106 L 467,107 L 466,107 L 467,108 L 465,110 L 464,110 L 463,109 L 464,108 L 463,108 L 462,109 L 461,109 L 460,108 L 460,109 L 459,110 L 458,109 L 457,109 L 455,111 L 454,110 L 454,109 L 453,108 L 452,108 L 451,107 L 452,108 L 452,109 L 451,110 L 450,109 L 451,110 L 449,112 L 448,111 L 447,111 L 446,110 L 447,109 L 448,109 L 446,109 L 445,110 L 444,109 L 442,111 L 441,110 L 439,110 L 437,108 L 437,107 L 437,109 L 435,111 L 434,110 L 433,111 L 432,110 L 432,109 L 431,108 L 430,109 L 431,109 L 432,110 L 432,111 L 431,112 L 430,111 L 429,111 L 429,112 L 428,113 L 427,113 L 426,112 L 427,111 L 426,111 L 425,110 L 424,111 L 423,111 L 422,110 L 422,109 L 421,108 L 419,110 L 418,110 L 417,109 L 417,108 L 416,108 L 416,109 L 415,110 L 414,109 L 415,110 L 414,111 L 413,111 L 412,110 L 411,111 L 410,111 L 409,110 L 410,109 L 409,110 L 410,111 L 409,112 L 408,112 L 407,111 L 407,112 L 406,113 L 405,112 L 405,111 L 404,110 L 403,111 L 401,109 L 400,109 L 401,110 L 399,112 L 397,112 L 398,113 L 397,114 L 397,115 L 396,116 L 395,115 L 395,112 L 394,111 L 392,111 L 391,110 L 392,111 L 391,112 L 389,112 L 386,109 L 385,110 L 386,109 L 388,111 L 387,112 L 386,112 L 385,113 L 383,111 L 382,111 L 381,112 L 380,112 L 379,111 L 378,112 L 379,113 L 377,115 L 376,114 L 376,111 L 375,111 L 376,112 L 374,114 L 373,113 L 373,112 L 372,111 L 373,110 L 370,113 L 369,112 L 368,112 L 367,111 L 368,110 L 369,110 L 370,109 L 369,110 L 368,110 L 364,114 L 363,114 L 362,113 L 362,114 L 361,115 L 359,113 L 361,111 L 362,111 L 361,111 L 360,112 L 359,112 L 358,113 L 357,112 L 357,111 L 355,113 L 353,113 L 352,112 L 353,111 L 354,111 L 354,110 L 352,112 L 351,112 L 350,113 L 349,112 L 350,113 L 350,115 L 349,116 L 348,116 L 347,115 L 348,114 L 344,114 L 343,113 L 343,112 L 341,112 L 340,113 L 338,113 L 340,113 L 341,112 L 342,112 L 343,113 L 340,116 L 339,115 L 338,115 L 337,116 L 336,115 L 336,112 L 336,113 L 334,115 L 333,115 L 332,114 L 333,113 L 332,114 L 331,113 L 330,113 L 330,116 L 329,117 L 328,117 L 327,116 L 328,115 L 328,113 L 328,115 L 327,116 L 326,115 L 324,115 L 323,114 L 324,113 L 323,113 L 323,117 L 322,118 L 321,117 L 321,115 L 321,116 L 320,117 L 318,117 L 317,118 L 316,118 L 315,117 L 317,115 L 318,115 L 319,114 L 319,113 L 316,116 L 315,115 L 315,116 L 314,117 L 313,116 L 313,115 L 310,115 L 310,116 L 309,117 L 308,116 L 307,116 L 307,117 L 306,118 L 305,118 L 304,117 L 304,115 L 303,115 L 302,114 L 303,115 L 303,116 L 302,117 L 301,116 L 297,116 L 296,115 L 296,118 L 295,119 L 294,118 L 294,117 L 293,117 L 292,118 L 291,117 L 291,116 L 291,118 L 290,119 L 289,118 L 289,116 L 288,115 L 287,115 L 288,115 L 289,116 L 289,118 L 288,119 L 286,117 L 285,117 L 284,118 L 283,118 L 284,119 L 282,121 L 281,120 L 281,118 L 280,119 L 279,119 L 278,118 L 278,117 L 277,117 L 276,116 L 275,117 L 276,118 L 277,117 L 278,118 L 278,119 L 279,120 L 277,122 L 276,121 L 276,120 L 275,120 L 274,119 L 274,120 L 275,121 L 274,122 L 272,122 L 271,121 L 270,122 L 268,122 L 267,121 L 267,120 L 266,121 L 265,120 L 264,120 L 264,121 L 265,122 L 264,123 L 264,124 L 263,125 L 262,124 L 261,125 L 260,125 L 259,124 L 259,123 L 259,125 L 258,126 L 257,125 L 256,125 L 256,128 L 255,129 L 253,127 L 254,126 L 253,127 L 252,126 L 252,125 L 252,126 L 251,127 L 251,128 L 250,129 L 249,129 L 248,128 L 246,128 L 245,129 L 244,129 L 243,128 L 240,128 L 240,131 L 239,132 L 237,130 L 235,130 L 234,129 L 232,129 L 232,130 L 233,131 L 233,132 L 232,133 L 229,133 L 227,131 L 229,133 L 227,135 L 226,135 L 224,133 L 225,134 L 225,135 L 223,137 L 221,137 L 220,136 L 220,135 L 222,133 L 221,133 L 220,134 L 220,136 L 219,137 L 217,137 L 216,136 L 215,137 L 214,136 L 214,135 L 214,136 L 215,137 L 214,138 L 214,139 L 213,140 L 211,138 L 212,137 L 211,138 L 210,137 L 211,138 L 211,141 L 212,142 L 211,143 L 210,143 L 209,142 L 209,140 L 208,140 L 209,141 L 209,142 L 208,143 L 207,142 L 208,143 L 207,144 L 206,144 L 205,143 L 205,142 L 204,142 L 205,143 L 205,144 L 206,145 L 206,146 L 205,147 L 203,145 L 201,145 L 200,144 L 200,143 L 199,144 L 198,143 L 197,144 L 196,143 L 195,143 L 196,143 L 197,144 L 198,143 L 200,145 L 199,146 L 198,146 L 196,148 L 195,147 L 194,147 L 193,148 L 192,148 L 191,147 L 190,147 L 191,147 L 193,149 L 192,150 L 191,150 L 190,149 L 190,152 L 189,153 L 187,151 L 188,152 L 187,153 L 186,153 L 185,152 L 184,152 L 182,154 L 182,156 L 183,157 L 183,159 L 182,160 L 181,160 L 180,159 L 181,158 L 180,157 L 180,156 L 180,157 L 179,158 L 177,158 L 178,159 L 179,158 L 180,159 L 180,160 L 179,161 L 177,161 L 175,159 L 175,158 L 174,157 L 174,156 L 174,157 L 175,158 L 174,159 L 174,160 L 175,161 L 174,162 L 173,162 L 172,161 L 172,162 L 173,163 L 172,164 L 171,164 L 172,165 L 172,167 L 171,168 L 170,167 L 170,166 L 169,165 L 169,163 L 170,162 L 168,162 L 169,163 L 169,166 L 168,167 L 166,167 L 165,168 L 164,167 L 164,166 L 164,168 L 163,169 L 162,169 L 163,170 L 162,171 L 162,172 L 161,173 L 160,172 L 159,173 L 156,173 L 155,172 L 155,173 L 153,175 L 153,176 L 152,177 L 151,177 L 150,176 L 148,178 L 147,177 L 145,177 L 146,177 L 147,178 L 146,179 L 144,179 L 143,178 L 144,179 L 144,180 L 143,181 L 142,181 L 141,182 L 140,181 L 139,182 L 138,181 L 139,182 L 138,183 L 139,184 L 138,185 L 136,185 L 135,186 L 134,186 L 133,187 L 132,187 L 131,186 L 132,185 L 132,184 L 131,185 L 131,188 L 130,189 L 129,188 L 129,187 L 128,186 L 129,187 L 129,188 L 128,189 L 129,190 L 128,191 L 128,193 L 127,194 L 126,193 L 124,193 L 121,196 L 120,196 L 120,197 L 121,198 L 120,199 L 119,199 L 119,200 L 117,202 L 116,202 L 115,201 L 114,201 L 115,201 L 117,203 L 116,204 L 115,204 L 114,203 L 113,204 L 113,205 L 114,206 L 113,207 L 112,207 L 110,205 L 108,205 L 108,206 L 109,207 L 109,208 L 108,209 L 107,208 L 107,209 L 106,210 L 105,210 L 104,209 L 104,208 L 101,211 L 102,212 L 100,214 L 101,215 L 101,216 L 100,217 L 98,217 L 97,216 L 95,216 L 96,216 L 97,217 L 95,219 L 94,218 L 94,219 L 91,222 L 90,222 L 90,224 L 89,225 L 88,224 L 87,225 L 88,225 L 89,226 L 88,227 L 87,227 L 87,228 L 88,229 L 87,230 L 85,230 L 84,229 L 85,228 L 83,230 L 83,231 L 82,232 L 80,232 L 80,233 L 78,235 L 79,235 L 81,237 L 80,238 L 78,238 L 77,237 L 76,238 L 76,239 L 75,240 L 74,240 L 73,241 L 76,241 L 77,242 L 76,243 L 77,244 L 76,245 L 73,245 L 72,244 L 73,243 L 74,243 L 72,243 L 72,245 L 71,246 L 72,245 L 74,245 L 75,246 L 74,247 L 73,247 L 72,248 L 71,248 L 71,249 L 69,251 L 69,252 L 70,253 L 69,254 L 67,254 L 66,255 L 65,254 L 65,253 L 64,252 L 65,251 L 64,252 L 65,253 L 65,254 L 66,255 L 67,254 L 68,255 L 68,256 L 69,257 L 68,258 L 67,258 L 66,257 L 67,258 L 66,259 L 63,259 L 62,258 L 63,259 L 64,259 L 65,260 L 64,261 L 65,262 L 64,263 L 64,265 L 63,266 L 64,267 L 63,268 L 63,270 L 64,271 L 63,272 L 63,273 L 62,274 L 61,273 L 61,275 L 60,276 L 59,275 L 58,275 L 58,277 L 57,278 L 55,278 L 56,278 L 57,279 L 55,281 L 56,281 L 57,282 L 57,283 L 56,284 L 55,283 L 56,284 L 56,286 L 55,287 L 54,286 L 53,286 L 53,287 L 54,286 L 56,288 L 57,288 L 59,290 L 58,291 L 57,291 L 56,290 L 53,290 L 54,290 L 56,292 L 56,293 L 55,294 L 54,293 L 55,294 L 55,295 L 54,296 L 53,296 L 52,295 L 53,296 L 53,297 L 52,298 L 51,298 L 50,297 L 50,295 L 50,297 L 51,298 L 49,300 L 48,299 L 49,300 L 49,302 L 48,303 L 49,302 L 51,304 L 50,305 L 50,306 L 49,307 L 48,306 L 49,307 L 49,311 L 47,313 L 48,312 L 49,313 L 49,311 L 50,310 L 51,311 L 52,311 L 53,312 L 52,313 L 51,313 L 51,314 L 50,315 L 49,315 L 47,317 L 48,318 L 48,323 L 47,324 L 49,326 L 48,327 L 48,328 L 46,330 L 46,331 L 46,330 L 47,329 L 48,330 L 48,332 L 49,333 L 48,334 L 47,334 L 46,333 L 47,334 L 46,335 L 46,336 L 45,337 L 43,337 L 43,338 L 44,337 L 45,337 L 46,338 L 46,342 L 45,343 L 47,341 L 48,342 L 48,343 L 46,345 L 46,347 L 44,349 L 44,350 L 45,351 L 45,352 L 46,353 L 45,354 L 45,355 L 46,354 L 48,356 L 48,357 L 47,358 L 46,357 L 46,360 L 45,361 L 44,360 L 45,361 L 44,362 L 44,363 L 43,364 L 43,365 L 44,366 L 43,367 L 45,367 L 46,368 L 45,369 L 46,370 L 45,371 L 43,371 L 45,371 L 46,372 L 44,374 L 44,375 L 45,376 L 44,377 L 44,378 L 46,380 L 46,381 L 47,382 L 47,385 L 46,386 L 46,388 L 47,389 L 48,388 L 49,389 L 49,390 L 47,392 L 46,391 L 47,392 L 48,392 L 49,391 L 50,392 L 50,393 L 51,394 L 50,395 L 49,395 L 48,394 L 47,395 L 48,396 L 49,396 L 50,397 L 50,399 L 51,398 L 52,398 L 53,399 L 53,401 L 52,402 L 51,401 L 50,401 L 48,403 L 51,403 L 52,402 L 53,402 L 55,404 L 53,406 L 52,405 L 51,405 L 51,406 L 50,407 L 53,407 L 54,408 L 54,410 L 52,412 L 52,415 L 52,412 L 53,411 L 56,411 L 57,412 L 55,414 L 54,413 L 55,414 L 54,415 L 55,415 L 56,416 L 56,418 L 57,419 L 58,419 L 59,420 L 57,422 L 56,422 L 55,423 L 56,422 L 57,423 L 57,424 L 57,423 L 58,422 L 59,423 L 59,426 L 59,424 L 60,423 L 62,423 L 63,424 L 63,426 L 60,429 L 59,428 L 60,429 L 59,430 L 58,430 L 59,430 L 60,431 L 60,430 L 61,429 L 63,431 L 61,433 L 59,433 L 61,433 L 62,434 L 61,433 L 62,432 L 63,432 L 64,433 L 64,436 L 63,437 L 62,437 L 64,437 L 65,438 L 64,439 L 64,440 L 63,441 L 64,440 L 65,441 L 65,440 L 66,439 L 67,440 L 67,442 L 68,442 L 69,443 L 69,444 L 67,446 L 70,446 L 71,447 L 71,448 L 70,449 L 70,451 L 69,452 L 67,450 L 67,448 L 67,451 L 68,451 L 69,452 L 68,453 L 69,452 L 70,453 L 69,452 L 71,450 L 72,451 L 72,458 L 71,459 L 70,459 L 71,459 L 73,457 L 74,458 L 74,459 L 75,460 L 73,462 L 72,462 L 73,463 L 74,462 L 75,462 L 77,464 L 77,465 L 78,466 L 78,467 L 77,468 L 77,469 L 76,470 L 77,469 L 78,470 L 78,473 L 78,471 L 79,470 L 81,472 L 82,472 L 83,473 L 83,474 L 82,475 L 81,474 L 81,475 L 82,476 L 81,477 L 83,479 L 84,479 L 85,480 L 85,481 L 84,482 L 83,481 L 82,481 L 81,482 L 81,483 L 81,482 L 82,481 L 83,481 L 84,482 L 83,483 L 84,484 L 83,483 L 86,480 L 87,481 L 87,482 L 86,483 L 86,485 L 85,486 L 84,486 L 83,487 L 82,487 L 83,488 L 83,487 L 84,486 L 85,486 L 86,487 L 85,488 L 87,486 L 88,487 L 88,488 L 90,490 L 90,491 L 91,492 L 90,493 L 91,494 L 90,495 L 89,495 L 88,494 L 88,491 L 88,498 L 88,496 L 89,495 L 91,497 L 91,498 L 93,498 L 94,499 L 92,501 L 94,499 L 95,500 L 95,501 L 94,502 L 94,503 L 95,504 L 95,505 L 96,505 L 96,504 L 95,503 L 96,502 L 97,502 L 98,503 L 98,505 L 99,506 L 98,507 L 99,507 L 100,508 L 100,509 L 99,510 L 98,509 L 97,509 L 97,510 L 98,511 L 99,511 L 100,512 L 101,511 L 103,511 L 104,512 L 105,512 L 106,513 L 106,514 L 105,515 L 104,515 L 103,514 L 103,515 L 104,516 L 104,517 L 105,518 L 105,519 L 104,520 L 104,521 L 105,520 L 107,522 L 106,523 L 107,524 L 107,525 L 108,526 L 108,530 L 109,531 L 108,530 L 108,528 L 109,527 L 110,527 L 111,528 L 111,529 L 112,528 L 113,529 L 114,529 L 115,530 L 114,531 L 111,531 L 111,532 L 110,533 L 111,532 L 112,532 L 113,533 L 112,534 L 113,534 L 114,535 L 115,535 L 116,536 L 115,537 L 116,536 L 118,538 L 117,539 L 119,539 L 120,540 L 119,541 L 118,541 L 120,541 L 121,542 L 120,543 L 120,544 L 119,545 L 118,545 L 119,545 L 120,544 L 121,544 L 122,545 L 121,546 L 122,547 L 121,548 L 120,548 L 120,550 L 124,554 L 126,554 L 127,555 L 126,556 L 123,556 L 122,557 L 120,555 L 122,557 L 121,558 L 123,556 L 125,558 L 123,560 L 123,561 L 123,560 L 125,558 L 127,560 L 127,562 L 128,562 L 129,563 L 128,564 L 127,564 L 128,564 L 129,565 L 129,566 L 130,567 L 131,566 L 132,566 L 133,567 L 134,567 L 135,568 L 135,570 L 134,571 L 134,573 L 134,572 L 137,569 L 138,569 L 139,570 L 137,572 L 137,573 L 136,574 L 136,575 L 137,574 L 139,576 L 138,577 L 138,578 L 139,579 L 139,580 L 140,581 L 139,582 L 140,582 L 141,583 L 141,584 L 141,582 L 142,581 L 144,583 L 144,584 L 145,585 L 144,586 L 144,587 L 145,588 L 145,589 L 146,589 L 147,590 L 147,591 L 149,591 L 150,592 L 149,593 L 150,594 L 149,595 L 149,597 L 148,598 L 149,597 L 150,598 L 150,599 L 155,599 L 156,600 L 155,601 L 154,601 L 155,602 L 154,603 L 155,604 L 155,601 L 156,600 L 156,599 L 157,598 L 158,599 L 158,600 L 159,601 L 158,602 L 157,602 L 157,605 L 156,606 L 155,606 L 155,607 L 156,607 L 157,608 L 155,610 L 157,608 L 156,607 L 156,606 L 157,605 L 158,606 L 159,605 L 160,606 L 160,608 L 158,610 L 159,609 L 160,610 L 160,612 L 161,613 L 162,612 L 163,612 L 164,613 L 162,615 L 162,617 L 164,617 L 165,618 L 165,619 L 166,620 L 166,621 L 167,620 L 168,621 L 168,622 L 167,623 L 166,623 L 166,624 L 168,624 L 169,623 L 171,623 L 172,624 L 171,625 L 171,626 L 170,627 L 171,627 L 172,628 L 172,630 L 173,631 L 174,631 L 175,632 L 175,634 L 174,635 L 174,636 L 172,638 L 173,639 L 172,638 L 174,636 L 175,636 L 176,637 L 176,638 L 177,639 L 179,639 L 180,640 L 179,641 L 180,640 L 181,641 L 182,640 L 184,642 L 184,643 L 183,644 L 182,643 L 181,644 L 180,644 L 179,645 L 178,645 L 177,644 L 178,643 L 177,642 L 178,643 L 177,644 L 178,645 L 178,646 L 180,646 L 181,647 L 182,646 L 183,646 L 184,647 L 184,648 L 183,649 L 183,650 L 187,654 L 186,655 L 184,655 L 186,655 L 187,654 L 188,655 L 191,655 L 192,656 L 190,658 L 191,657 L 193,659 L 193,660 L 192,661 L 190,661 L 191,661 L 193,663 L 192,664 L 191,664 L 192,664 L 193,663 L 195,663 L 196,662 L 197,663 L 197,665 L 196,666 L 195,665 L 193,667 L 194,666 L 195,666 L 197,668 L 197,669 L 196,670 L 195,669 L 194,669 L 195,669 L 196,670 L 196,671 L 198,671 L 199,672 L 201,672 L 202,673 L 202,674 L 201,675 L 203,673 L 204,674 L 205,674 L 206,675 L 205,676 L 203,676 L 200,679 L 201,678 L 202,678 L 206,682 L 205,683 L 206,683 L 207,684 L 206,685 L 208,685 L 209,686 L 208,687 L 208,689 L 207,690 L 209,690 L 210,691 L 209,692 L 208,692 L 210,692 L 211,693 L 211,694 L 210,695 L 209,694 L 210,695 L 211,694 L 213,696 L 212,697 L 212,698 L 212,697 L 213,696 L 214,696 L 215,695 L 216,696 L 216,697 L 215,698 L 214,698 L 216,698 L 217,699 L 215,701 L 214,700 L 215,701 L 218,701 L 219,702 L 218,703 L 216,703 L 218,703 L 219,704 L 218,705 L 217,705 L 217,706 L 219,706 L 220,707 L 219,708 L 219,709 L 218,710 L 219,709 L 220,710 L 221,709 L 222,710 L 222,711 L 224,713 L 223,714 L 222,714 L 223,714 L 226,717 L 226,718 L 227,719 L 228,719 L 229,720 L 228,721 L 227,721 L 228,722 L 229,722 L 228,721 L 230,719 L 232,721 L 232,722 L 230,724 L 230,726 L 231,727 L 230,726 L 231,725 L 232,725 L 233,726 L 233,727 L 235,727 L 236,728 L 235,729 L 234,729 L 236,729 L 237,730 L 236,731 L 236,734 L 237,735 L 237,736 L 238,735 L 239,735 L 240,736 L 239,737 L 240,738 L 240,739 L 241,739 L 243,741 L 243,742 L 242,743 L 241,742 L 241,743 L 242,743 L 243,744 L 245,742 L 247,744 L 247,746 L 245,748 L 244,748 L 245,748 L 247,746 L 249,748 L 249,750 L 249,749 L 251,747 L 252,748 L 252,749 L 251,750 L 251,753 L 252,754 L 251,755 L 252,754 L 253,755 L 253,756 L 252,757 L 253,756 L 256,759 L 256,760 L 257,759 L 259,761 L 259,764 L 260,765 L 261,765 L 262,766 L 262,767 L 263,766 L 264,767 L 264,768 L 263,769 L 264,770 L 263,771 L 262,771 L 261,770 L 263,772 L 263,773 L 262,774 L 263,773 L 263,772 L 264,771 L 266,773 L 265,774 L 266,775 L 267,775 L 268,776 L 267,777 L 268,778 L 269,778 L 270,779 L 269,780 L 267,780 L 266,779 L 268,781 L 268,782 L 267,783 L 268,782 L 269,783 L 270,782 L 272,784 L 273,783 L 274,783 L 275,784 L 275,785 L 274,786 L 275,785 L 276,785 L 277,786 L 277,788 L 276,789 L 275,788 L 276,789 L 275,790 L 276,791 L 278,789 L 280,791 L 280,792 L 281,793 L 282,793 L 283,794 L 283,795 L 284,796 L 283,797 L 284,798 L 283,799 L 281,799 L 283,799 L 284,798 L 285,799 L 286,799 L 287,798 L 288,799 L 288,800 L 287,801 L 289,801 L 290,802 L 290,803 L 289,804 L 288,803 L 288,804 L 290,806 L 290,807 L 289,808 L 290,807 L 293,807 L 293,806 L 294,805 L 296,807 L 296,808 L 294,810 L 294,811 L 295,810 L 296,811 L 296,813 L 294,815 L 295,814 L 296,815 L 296,816 L 297,817 L 296,818 L 297,819 L 297,820 L 296,821 L 297,822 L 297,820 L 298,819 L 299,819 L 301,821 L 300,822 L 299,822 L 300,823 L 301,823 L 302,822 L 303,822 L 304,823 L 304,824 L 305,825 L 305,829 L 306,829 L 307,828 L 308,829 L 308,830 L 307,831 L 306,831 L 307,831 L 308,832 L 309,832 L 310,833 L 308,835 L 307,835 L 308,835 L 309,834 L 310,834 L 311,835 L 311,836 L 309,838 L 310,839 L 310,838 L 311,837 L 313,839 L 314,839 L 315,840 L 315,841 L 317,841 L 318,842 L 318,843 L 319,843 L 320,844 L 321,844 L 322,845 L 321,846 L 320,846 L 319,847 L 320,848 L 321,847 L 324,847 L 326,849 L 325,850 L 325,852 L 326,853 L 325,854 L 324,854 L 323,853 L 323,851 L 322,851 L 323,852 L 323,853 L 325,855 L 325,857 L 325,854 L 326,853 L 328,855 L 327,856 L 328,856 L 329,857 L 327,859 L 326,859 L 327,859 L 329,861 L 327,859 L 328,858 L 329,858 L 330,857 L 331,858 L 331,859 L 332,860 L 331,861 L 332,862 L 333,862 L 334,863 L 333,864 L 332,864 L 334,866 L 335,866 L 336,867 L 335,866 L 335,865 L 336,864 L 337,865 L 338,865 L 339,866 L 338,867 L 339,868 L 339,870 L 338,871 L 337,871 L 335,869 L 337,871 L 336,872 L 337,871 L 338,871 L 339,870 L 341,870 L 342,871 L 340,873 L 341,873 L 341,872 L 342,871 L 343,872 L 343,873 L 344,874 L 343,875 L 342,875 L 341,876 L 340,876 L 342,876 L 343,877 L 344,876 L 346,876 L 347,877 L 345,879 L 350,879 L 351,880 L 350,881 L 350,882 L 351,883 L 350,884 L 347,884 L 348,885 L 349,884 L 352,884 L 353,885 L 353,886 L 354,887 L 355,887 L 356,888 L 355,889 L 354,889 L 355,889 L 356,888 L 357,889 L 357,890 L 358,890 L 360,892 L 361,892 L 359,890 L 360,889 L 361,889 L 363,891 L 363,892 L 364,893 L 364,894 L 363,895 L 362,894 L 361,894 L 362,895 L 364,895 L 365,894 L 366,895 L 366,896 L 368,898 L 367,899 L 368,900 L 367,901 L 368,901 L 369,902 L 370,902 L 371,901 L 372,902 L 374,902 L 375,903 L 374,904 L 375,903 L 376,904 L 376,905 L 375,906 L 376,906 L 378,908 L 377,909 L 376,909 L 375,908 L 376,909 L 377,909 L 378,910 L 377,911 L 378,911 L 379,910 L 380,911 L 382,909 L 383,909 L 384,910 L 385,910 L 386,911 L 386,913 L 388,913 L 388,912 L 389,911 L 390,912 L 391,912 L 392,913 L 391,914 L 390,914 L 390,916 L 389,917 L 388,916 L 388,915 L 388,916 L 389,917 L 389,918 L 388,919 L 389,918 L 389,917 L 390,916 L 390,915 L 391,914 L 392,915 L 392,916 L 393,916 L 394,915 L 396,917 L 394,919 L 393,918 L 392,919 L 394,919 L 395,918 L 396,919 L 397,919 L 398,920 L 397,921 L 398,920 L 399,921 L 399,922 L 398,923 L 399,923 L 400,922 L 401,923 L 401,924 L 400,925 L 401,926 L 402,926 L 403,925 L 404,926 L 404,928 L 403,929 L 403,930 L 404,930 L 405,929 L 404,928 L 404,926 L 405,925 L 406,926 L 406,927 L 407,928 L 407,930 L 408,931 L 408,932 L 407,933 L 408,932 L 408,931 L 407,930 L 408,929 L 410,929 L 411,930 L 410,931 L 411,932 L 410,933 L 412,933 L 414,931 L 415,931 L 416,932 L 415,933 L 415,934 L 416,935 L 420,935 L 421,936 L 422,936 L 423,937 L 421,939 L 420,939 L 419,938 L 419,937 L 419,938 L 420,939 L 421,939 L 423,937 L 424,937 L 425,936 L 426,936 L 427,937 L 426,938 L 427,938 L 428,939 L 427,940 L 425,940 L 424,941 L 423,941 L 424,941 L 425,940 L 427,940 L 428,941 L 429,940 L 430,941 L 430,942 L 431,941 L 432,942 L 432,944 L 432,943 L 433,942 L 434,943 L 436,943 L 438,945 L 437,946 L 438,947 L 439,947 L 441,945 L 444,945 L 445,946 L 444,947 L 445,946 L 446,947 L 446,948 L 445,949 L 444,949 L 444,950 L 443,951 L 446,948 L 447,949 L 447,947 L 448,946 L 449,947 L 449,948 L 450,949 L 448,951 L 448,952 L 449,953 L 448,952 L 449,951 L 450,951 L 451,950 L 452,951 L 454,949 L 456,949 L 457,950 L 457,951 L 455,953 L 458,953 L 459,954 L 459,956 L 460,956 L 459,955 L 459,954 L 460,953 L 462,955 L 462,954 L 463,953 L 464,954 L 464,955 L 465,956 L 465,957 L 467,957 L 469,959 L 469,960 L 469,959 L 470,958 L 471,958 L 472,959 L 472,960 L 473,961 L 473,962 L 473,960 L 474,959 L 475,960 L 475,961 L 476,960 L 478,960 L 479,961 L 477,963 L 477,964 L 478,965 L 480,965 L 482,967 L 483,966 L 484,966 L 485,967 L 486,967 L 487,966 L 488,967 L 486,965 L 486,964 L 487,963 L 488,963 L 489,964 L 489,965 L 491,967 L 492,966 L 493,967 L 495,967 L 496,968 L 497,967 L 498,968 L 499,968 L 500,967 L 500,966 L 501,965 L 504,968 L 505,967 L 506,968 L 507,967 L 508,968 L 508,967 L 509,966 L 510,967 L 510,968 L 511,969 L 512,968 L 513,969 L 513,968 L 515,966 L 516,967 L 518,967 L 519,968 L 519,969 L 517,971 L 518,970 L 519,970 L 519,969 L 521,967 L 522,967 L 523,968 L 525,966 L 526,967 L 526,968 L 527,967 L 529,967 L 530,968 L 531,967 L 533,967 L 535,969 L 537,967 L 538,967 L 539,966 L 540,967 L 545,967 L 546,966 L 547,967 L 549,967 L 548,966 L 549,965 L 548,964 L 548,962 L 549,961 L 550,962 L 550,963 L 552,965 L 552,963 L 553,962 L 555,964 L 554,965 L 556,967 L 557,966 L 555,964 L 555,963 L 556,962 L 557,963 L 559,963 L 558,962 L 559,961 L 561,961 L 562,960 L 563,961 L 562,960 L 564,958 L 565,959 L 565,960 L 566,959 L 566,958 L 568,956 L 569,957 L 569,958 L 570,959 L 569,958 L 571,956 L 573,956 L 574,955 L 574,954 L 575,953 L 577,955 L 577,956 L 576,957 L 575,957 L 576,957 L 577,958 L 577,959 L 580,959 L 581,958 L 580,959 L 579,958 L 577,958 L 576,957 L 578,955 L 579,955 L 579,954 L 581,952 L 582,953 L 582,954 L 583,953 L 584,953 L 584,951 L 585,950 L 586,951 L 590,951 L 589,950 L 591,948 L 593,950 L 593,951 L 593,950 L 594,949 L 595,950 L 593,948 L 593,947 L 592,948 L 591,947 L 591,946 L 592,945 L 594,945 L 595,946 L 595,947 L 596,947 L 597,946 L 598,946 L 600,944 L 601,945 L 603,945 L 601,945 L 600,944 L 602,942 L 603,942 L 604,943 L 604,942 L 605,941 L 607,941 L 608,940 L 609,940 L 610,939 L 611,940 L 611,939 L 608,939 L 607,938 L 607,937 L 608,936 L 609,937 L 613,937 L 613,936 L 615,934 L 616,935 L 616,936 L 615,937 L 616,936 L 617,936 L 618,935 L 620,935 L 620,934 L 619,933 L 619,932 L 621,930 L 623,932 L 622,933 L 623,932 L 622,931 L 623,930 L 624,930 L 625,929 L 626,929 L 625,929 L 624,930 L 622,928 L 622,927 L 623,926 L 624,927 L 626,927 L 626,926 L 625,925 L 627,923 L 628,924 L 628,926 L 628,925 L 629,924 L 630,925 L 632,923 L 631,922 L 631,921 L 632,920 L 633,921 L 632,920 L 633,919 L 635,919 L 637,917 L 638,918 L 638,917 L 637,916 L 638,915 L 638,914 L 640,912 L 641,912 L 642,913 L 644,913 L 645,912 L 644,913 L 642,913 L 641,912 L 642,911 L 643,911 L 645,909 L 646,909 L 648,907 L 647,906 L 647,905 L 650,902 L 651,903 L 652,902 L 653,903 L 651,901 L 653,899 L 654,900 L 654,901 L 655,900 L 656,900 L 657,899 L 656,900 L 655,899 L 655,898 L 656,897 L 656,896 L 657,895 L 658,895 L 659,896 L 660,895 L 662,895 L 661,895 L 660,894 L 660,893 L 659,892 L 659,891 L 661,889 L 663,891 L 662,892 L 662,893 L 662,892 L 663,891 L 662,890 L 665,887 L 665,884 L 666,883 L 668,885 L 668,886 L 667,887 L 668,887 L 669,888 L 668,887 L 668,885 L 669,884 L 670,885 L 671,885 L 672,884 L 670,882 L 670,881 L 671,880 L 672,880 L 672,879 L 673,878 L 674,879 L 676,879 L 676,878 L 675,877 L 676,876 L 675,875 L 677,873 L 679,873 L 680,874 L 679,875 L 679,876 L 678,877 L 679,876 L 679,875 L 680,874 L 680,873 L 678,871 L 679,870 L 682,870 L 681,870 L 680,869 L 682,867 L 683,867 L 684,868 L 684,869 L 685,868 L 684,868 L 683,867 L 683,864 L 685,862 L 686,862 L 687,863 L 688,863 L 687,862 L 690,859 L 691,859 L 690,858 L 692,856 L 695,856 L 694,856 L 693,855 L 694,854 L 695,854 L 696,853 L 697,854 L 696,853 L 697,852 L 697,851 L 696,850 L 697,849 L 696,848 L 697,847 L 701,847 L 700,846 L 701,845 L 703,845 L 702,844 L 704,842 L 705,843 L 706,843 L 705,843 L 704,842 L 704,840 L 705,839 L 706,839 L 707,840 L 707,841 L 707,840 L 708,839 L 709,839 L 709,837 L 708,837 L 707,836 L 707,835 L 708,834 L 710,834 L 711,835 L 711,833 L 710,834 L 709,834 L 708,833 L 711,830 L 713,830 L 714,831 L 714,830 L 715,829 L 717,829 L 718,830 L 718,829 L 717,829 L 715,827 L 715,825 L 719,821 L 719,819 L 720,818 L 721,819 L 722,818 L 723,819 L 723,818 L 724,817 L 723,816 L 724,815 L 722,815 L 721,814 L 722,813 L 723,813 L 723,812 L 724,811 L 726,813 L 726,814 L 728,816 L 726,814 L 726,813 L 725,812 L 727,810 L 726,811 L 725,811 L 724,810 L 726,808 L 726,807 L 727,806 L 728,807 L 729,806 L 729,805 L 727,803 L 729,801 L 730,801 L 731,802 L 730,803 L 731,802 L 731,801 L 730,801 L 729,800 L 730,799 L 732,799 L 733,800 L 733,799 L 734,798 L 735,798 L 736,797 L 737,798 L 737,799 L 737,798 L 736,797 L 736,795 L 735,795 L 734,794 L 735,793 L 736,793 L 737,792 L 738,792 L 739,793 L 739,794 L 739,791 L 741,789 L 742,789 L 742,788 L 743,787 L 744,788 L 745,788 L 744,787 L 743,787 L 741,785 L 741,784 L 742,783 L 744,785 L 745,784 L 745,783 L 744,782 L 745,781 L 746,781 L 747,782 L 747,783 L 748,783 L 749,784 L 750,783 L 749,783 L 748,782 L 750,780 L 752,782 L 752,781 L 753,780 L 752,779 L 752,778 L 753,777 L 756,780 L 755,779 L 755,777 L 754,776 L 755,775 L 756,775 L 756,774 L 757,773 L 758,774 L 757,773 L 758,772 L 757,771 L 757,770 L 758,769 L 759,770 L 760,769 L 759,768 L 761,766 L 761,764 L 762,763 L 763,764 L 763,765 L 764,765 L 763,764 L 763,763 L 764,762 L 762,760 L 763,759 L 764,759 L 765,760 L 766,760 L 767,761 L 767,762 L 766,763 L 767,763 L 768,764 L 767,763 L 767,760 L 768,759 L 767,760 L 765,758 L 766,757 L 768,757 L 769,756 L 769,754 L 770,753 L 771,754 L 771,756 L 772,757 L 771,756 L 771,754 L 772,753 L 770,753 L 769,752 L 770,751 L 772,751 L 772,750 L 771,750 L 770,749 L 771,748 L 772,748 L 773,747 L 773,745 L 774,744 L 775,745 L 776,744 L 776,743 L 777,742 L 777,740 L 778,739 L 779,739 L 780,740 L 779,739 L 779,736 L 780,735 L 781,736 L 781,737 L 782,736 L 780,734 L 781,733 L 782,733 L 783,734 L 782,733 L 782,732 L 783,731 L 784,732 L 783,731 L 784,730 L 784,729 L 785,728 L 787,730 L 787,729 L 786,729 L 785,728 L 786,727 L 787,727 L 788,726 L 788,725 L 787,724 L 787,721 L 789,719 L 792,719 L 791,719 L 790,718 L 791,717 L 792,717 L 793,716 L 794,717 L 793,716 L 793,714 L 792,713 L 794,711 L 795,712 L 795,711 L 796,710 L 796,709 L 797,708 L 798,709 L 798,711 L 798,709 L 799,708 L 800,709 L 800,707 L 801,706 L 802,707 L 801,706 L 801,705 L 800,704 L 802,702 L 803,703 L 805,701 L 807,701 L 805,701 L 803,703 L 801,701 L 802,700 L 803,700 L 804,699 L 803,698 L 804,697 L 805,697 L 806,696 L 808,698 L 807,697 L 808,696 L 807,696 L 806,695 L 807,694 L 808,694 L 809,693 L 810,694 L 813,694 L 811,694 L 810,693 L 813,690 L 812,689 L 812,688 L 813,687 L 814,688 L 814,685 L 813,684 L 814,683 L 815,683 L 816,684 L 815,683 L 816,682 L 815,681 L 816,680 L 816,679 L 815,679 L 814,678 L 817,675 L 818,676 L 819,676 L 819,674 L 820,673 L 821,674 L 822,673 L 821,672 L 822,671 L 822,670 L 821,669 L 822,668 L 822,665 L 823,664 L 824,665 L 825,664 L 826,664 L 826,663 L 827,662 L 828,663 L 828,662 L 829,661 L 830,662 L 829,661 L 830,660 L 830,659 L 829,659 L 828,658 L 829,657 L 830,657 L 830,656 L 829,655 L 829,654 L 830,653 L 831,654 L 830,653 L 830,652 L 831,651 L 832,651 L 832,650 L 833,649 L 834,650 L 835,650 L 835,649 L 833,649 L 832,648 L 833,647 L 834,647 L 834,646 L 835,645 L 836,646 L 836,647 L 838,647 L 837,647 L 836,646 L 837,645 L 838,645 L 839,644 L 840,645 L 839,644 L 839,642 L 841,640 L 842,640 L 843,641 L 844,640 L 844,639 L 843,638 L 844,637 L 845,637 L 847,635 L 847,634 L 845,634 L 844,633 L 846,631 L 847,632 L 848,632 L 849,633 L 848,632 L 848,631 L 849,630 L 850,630 L 851,629 L 850,628 L 850,627 L 851,626 L 852,626 L 853,625 L 854,626 L 853,625 L 853,624 L 854,623 L 855,623 L 856,624 L 855,623 L 856,622 L 857,622 L 856,622 L 855,623 L 854,622 L 854,621 L 855,620 L 855,619 L 856,618 L 857,619 L 857,620 L 857,619 L 856,618 L 856,616 L 857,615 L 858,615 L 857,615 L 856,614 L 856,613 L 857,612 L 858,613 L 859,612 L 860,613 L 861,612 L 861,611 L 862,610 L 861,609 L 861,608 L 862,607 L 862,606 L 865,603 L 864,604 L 863,603 L 863,602 L 865,600 L 866,600 L 866,599 L 867,598 L 868,598 L 869,597 L 870,598 L 869,597 L 870,596 L 871,596 L 872,597 L 871,596 L 870,596 L 869,597 L 868,596 L 868,595 L 869,594 L 870,594 L 873,591 L 873,590 L 872,589 L 873,588 L 872,588 L 872,589 L 873,590 L 873,591 L 871,593 L 870,592 L 870,587 L 871,586 L 872,586 L 873,585 L 875,585 L 875,584 L 876,583 L 876,582 L 877,581 L 878,582 L 878,583 L 878,582 L 877,581 L 876,581 L 875,580 L 875,578 L 876,577 L 877,577 L 878,578 L 877,579 L 878,579 L 879,580 L 878,579 L 878,578 L 877,577 L 878,576 L 879,576 L 878,575 L 878,574 L 883,569 L 884,569 L 886,567 L 886,566 L 887,565 L 887,562 L 890,559 L 891,559 L 892,558 L 891,557 L 892,556 L 892,555 L 893,554 L 892,553 L 893,552 L 894,552 L 895,553 L 895,552 L 894,552 L 893,551 L 895,549 L 896,550 L 897,550 L 896,549 L 896,548 L 895,547 L 896,546 L 895,545 L 896,544 L 897,544 L 898,545 L 900,543 L 901,544 L 900,543 L 903,540 L 903,539 L 904,538 L 905,538 L 904,538 L 903,537 L 903,535 L 902,534 L 903,533 L 904,533 L 905,534 L 904,533 L 904,532 L 905,531 L 907,531 L 906,531 L 905,530 L 906,529 L 907,529 L 908,528 L 909,528 L 911,526 L 910,525 L 910,522 L 912,520 L 913,520 L 914,519 L 914,518 L 913,517 L 912,517 L 911,516 L 912,515 L 912,514 L 913,513 L 915,515 L 915,516 L 915,515 L 914,514 L 916,512 L 917,513 L 916,512 L 917,511 L 918,511 L 919,512 L 918,511 L 918,509 L 916,507 L 917,506 L 918,506 L 919,507 L 920,507 L 920,506 L 921,505 L 920,506 L 919,505 L 919,502 L 920,501 L 921,502 L 923,500 L 922,501 L 921,500 L 921,499 L 922,498 L 924,498 L 924,497 L 925,496 L 924,495 L 926,493 L 925,492 L 927,490 L 928,490 L 927,489 L 929,487 L 930,487 L 929,486 L 929,485 L 928,485 L 927,484 L 930,481 L 931,482 L 931,483 L 931,481 L 932,480 L 933,481 L 933,480 L 932,479 L 932,477 L 933,476 L 934,477 L 934,478 L 934,477 L 935,476 L 934,476 L 933,475 L 933,474 L 934,473 L 935,474 L 936,474 L 935,473 L 936,472 L 935,471 L 936,470 L 937,470 L 938,471 L 940,471 L 942,469 L 942,468 L 943,467 L 943,465 L 944,464 L 942,462 L 944,460 L 945,460 L 947,462 L 946,461 L 946,460 L 943,457 L 945,455 L 946,456 L 946,457 L 947,457 L 946,456 L 948,454 L 949,455 L 950,454 L 950,453 L 949,452 L 948,452 L 947,451 L 947,449 L 948,448 L 949,449 L 949,450 L 950,450 L 951,449 L 950,450 L 949,449 L 949,448 L 950,447 L 951,447 L 950,447 L 949,446 L 951,444 L 952,444 L 953,443 L 953,442 L 952,442 L 951,441 L 952,440 L 953,440 L 955,438 L 956,439 L 957,439 L 956,438 L 957,437 L 959,437 L 959,435 L 960,434 L 959,435 L 956,432 L 957,431 L 958,431 L 959,432 L 960,432 L 959,431 L 961,429 L 961,427 L 960,426 L 960,425 L 959,424 L 959,423 L 958,422 L 959,421 L 960,421 L 961,422 L 963,422 L 962,421 L 963,420 L 962,421 L 960,419 L 962,417 L 963,418 L 963,416 L 964,415 L 965,415 L 964,414 L 964,413 L 965,412 L 966,413 L 967,412 L 967,411 L 966,411 L 965,410 L 967,408 L 969,408 L 967,408 L 963,404 L 964,403 L 965,403 L 967,405 L 965,403 L 965,399 L 964,398 L 965,397 L 966,397 L 967,396 L 968,397 L 969,397 L 968,396 L 969,395 L 967,395 L 966,394 L 966,393 L 967,392 L 969,392 L 970,393 L 969,392 L 970,391 L 971,391 L 972,390 L 972,389 L 971,389 L 972,390 L 971,391 L 969,391 L 968,390 L 969,389 L 969,388 L 968,387 L 969,386 L 969,385 L 968,384 L 970,382 L 971,383 L 972,383 L 971,382 L 971,381 L 970,382 L 969,382 L 968,381 L 970,379 L 972,379 L 970,379 L 969,378 L 971,376 L 972,377 L 973,377 L 974,376 L 972,374 L 972,373 L 973,372 L 974,373 L 973,372 L 972,373 L 971,372 L 971,369 L 970,368 L 971,367 L 972,367 L 974,369 L 973,370 L 974,369 L 975,369 L 974,369 L 973,368 L 974,367 L 973,366 L 974,365 L 974,364 L 976,362 L 975,361 L 974,362 L 973,362 L 972,361 L 972,360 L 971,359 L 972,358 L 973,358 L 974,359 L 972,357 L 973,356 L 974,356 L 972,356 L 970,354 L 972,352 L 973,353 L 973,354 L 973,353 L 972,352 L 973,351 L 974,351 L 973,351 L 972,350 L 973,349 L 974,349 L 973,348 L 972,348 L 971,347 L 972,346 L 973,346 L 973,345 L 972,344 L 973,343 L 975,343 L 975,342 L 974,342 L 973,341 L 973,340 L 972,341 L 971,341 L 969,339 L 970,338 L 971,338 L 971,337 L 972,336 L 972,335 L 973,334 L 974,335 L 973,334 L 974,333 L 973,334 L 971,334 L 970,333 L 971,332 L 972,332 L 971,331 L 971,330 L 974,327 L 975,328 L 974,327 L 972,329 L 971,329 L 971,332 L 970,333 L 969,332 L 969,328 L 968,327 L 969,326 L 971,326 L 971,324 L 969,324 L 968,323 L 970,321 L 971,322 L 971,321 L 969,321 L 968,320 L 969,319 L 971,319 L 970,318 L 970,316 L 971,315 L 971,313 L 970,313 L 969,312 L 969,311 L 970,310 L 969,310 L 968,311 L 967,310 L 967,309 L 968,308 L 968,306 L 967,305 L 967,304 L 966,303 L 965,304 L 964,303 L 964,301 L 963,300 L 962,300 L 960,298 L 960,297 L 959,296 L 960,295 L 962,295 L 963,296 L 962,297 L 963,298 L 964,298 L 966,300 L 966,301 L 967,300 L 967,299 L 966,300 L 964,298 L 964,297 L 962,295 L 963,294 L 962,294 L 961,293 L 962,292 L 962,291 L 964,289 L 963,289 L 963,290 L 962,291 L 961,290 L 960,290 L 959,289 L 959,288 L 960,287 L 960,286 L 959,287 L 958,286 L 958,284 L 959,283 L 960,284 L 961,284 L 961,281 L 960,280 L 958,282 L 957,281 L 957,280 L 956,280 L 955,279 L 957,277 L 958,278 L 959,278 L 958,277 L 954,277 L 953,276 L 954,275 L 955,275 L 954,275 L 953,276 L 952,275 L 952,274 L 953,273 L 955,273 L 953,273 L 952,272 L 953,271 L 954,271 L 953,271 L 952,272 L 950,270 L 950,268 L 951,267 L 951,266 L 950,266 L 948,264 L 948,263 L 949,262 L 950,262 L 949,261 L 948,261 L 947,260 L 947,259 L 946,258 L 947,257 L 946,258 L 945,258 L 944,257 L 944,254 L 945,253 L 946,253 L 944,251 L 944,250 L 943,249 L 944,248 L 941,248 L 942,248 L 943,249 L 941,251 L 939,249 L 939,247 L 940,246 L 940,245 L 940,246 L 939,247 L 939,248 L 938,249 L 937,248 L 937,246 L 938,245 L 938,244 L 937,244 L 936,243 L 937,242 L 936,241 L 936,240 L 937,239 L 936,240 L 935,239 L 934,239 L 933,238 L 934,237 L 934,236 L 933,235 L 934,234 L 933,234 L 932,233 L 930,233 L 929,232 L 929,231 L 927,231 L 926,230 L 927,229 L 926,228 L 927,227 L 926,227 L 925,228 L 924,228 L 923,227 L 924,226 L 923,225 L 924,226 L 923,227 L 921,227 L 920,226 L 920,225 L 922,223 L 920,221 L 919,221 L 917,219 L 918,218 L 916,216 L 917,215 L 916,214 L 917,213 L 916,214 L 912,214 L 911,213 L 912,212 L 912,210 L 911,209 L 910,210 L 908,210 L 907,209 L 908,208 L 909,208 L 910,207 L 910,206 L 909,206 L 907,204 L 907,203 L 908,202 L 908,201 L 907,201 L 908,202 L 907,203 L 906,203 L 905,204 L 904,203 L 903,203 L 902,202 L 903,201 L 904,201 L 904,200 L 905,199 L 904,200 L 901,200 L 900,199 L 900,196 L 897,196 L 896,195 L 896,194 L 895,194 L 894,193 L 893,194 L 892,193 L 892,190 L 892,191 L 891,192 L 890,191 L 890,190 L 888,188 L 888,187 L 887,186 L 887,184 L 886,185 L 885,184 L 885,185 L 884,186 L 883,185 L 883,184 L 882,183 L 881,183 L 880,182 L 881,181 L 875,175 L 875,174 L 875,175 L 876,176 L 875,177 L 874,177 L 873,176 L 873,175 L 872,174 L 872,173 L 873,172 L 872,173 L 870,173 L 869,174 L 867,172 L 866,172 L 865,171 L 865,168 L 866,167 L 865,168 L 864,168 L 862,170 L 861,169 L 861,166 L 862,165 L 861,166 L 860,165 L 859,166 L 858,166 L 857,165 L 856,165 L 855,164 L 855,162 L 856,161 L 856,160 L 855,161 L 854,160 L 854,159 L 854,162 L 853,163 L 850,163 L 849,162 L 850,161 L 851,161 L 852,160 L 852,157 L 851,156 L 852,157 L 852,160 L 851,161 L 850,160 L 850,159 L 849,158 L 848,158 L 847,157 L 848,156 L 849,156 L 848,155 L 847,155 L 848,156 L 847,157 L 846,157 L 845,158 L 844,157 L 844,156 L 845,155 L 845,152 L 845,153 L 844,154 L 843,153 L 841,153 L 840,152 L 839,152 L 838,153 L 837,152 L 836,153 L 835,152 L 835,151 L 834,151 L 833,152 L 832,151 L 831,152 L 830,151 L 830,150 L 829,150 L 828,149 L 829,148 L 831,148 L 831,146 L 829,148 L 828,147 L 828,146 L 830,144 L 829,145 L 827,145 L 826,144 L 825,144 L 824,143 L 823,144 L 822,144 L 820,142 L 821,141 L 821,140 L 822,139 L 821,140 L 821,141 L 820,142 L 821,143 L 819,145 L 818,144 L 818,143 L 816,141 L 814,141 L 813,140 L 814,139 L 816,139 L 816,138 L 815,139 L 814,138 L 813,138 L 812,137 L 811,138 L 810,137 L 810,138 L 809,139 L 808,138 L 808,136 L 805,136 L 804,137 L 803,136 L 802,136 L 801,135 L 801,134 L 799,136 L 798,135 L 798,134 L 799,133 L 798,134 L 798,135 L 797,136 L 796,136 L 795,135 L 796,134 L 796,133 L 793,133 L 791,131 L 792,130 L 790,132 L 789,131 L 788,131 L 787,132 L 785,130 L 785,129 L 786,128 L 787,129 L 788,128 L 787,129 L 786,128 L 785,129 L 784,128 L 783,129 L 784,130 L 783,131 L 782,131 L 781,130 L 781,128 L 781,129 L 780,130 L 779,129 L 778,130 L 776,128 L 776,127 L 775,128 L 773,126 L 774,125 L 773,125 L 772,126 L 771,125 L 772,126 L 770,128 L 768,128 L 767,127 L 767,126 L 769,124 L 768,123 L 768,122 L 767,121 L 768,122 L 768,123 L 769,124 L 768,125 L 767,125 L 766,124 L 765,125 L 764,125 L 763,124 L 763,122 L 763,124 L 762,125 L 760,123 L 760,120 L 760,122 L 759,123 L 758,123 L 758,124 L 757,125 L 756,124 L 756,123 L 755,123 L 754,122 L 755,121 L 757,121 L 758,120 L 757,121 L 755,121 L 754,122 L 752,120 L 753,121 L 751,123 L 750,122 L 750,121 L 749,120 L 748,120 L 747,121 L 746,121 L 747,122 L 746,123 L 745,123 L 743,121 L 744,120 L 743,120 L 743,121 L 742,122 L 740,120 L 740,119 L 739,119 L 737,117 L 735,117 L 737,117 L 738,118 L 737,119 L 736,119 L 735,120 L 734,119 L 733,120 L 732,119 L 732,118 L 733,117 L 732,117 L 732,118 L 730,120 L 729,119 L 729,118 L 730,117 L 729,116 L 730,115 L 731,115 L 730,115 L 729,116 L 727,114 L 728,115 L 727,116 L 726,116 L 726,117 L 725,118 L 724,117 L 724,116 L 723,115 L 724,114 L 724,112 L 723,113 L 724,114 L 722,116 L 721,115 L 721,114 L 720,115 L 719,115 L 718,114 L 719,113 L 718,114 L 717,114 L 716,115 L 715,114 L 715,112 L 714,113 L 713,112 L 712,113 L 711,112 L 710,113 L 709,112 L 708,112 L 707,111 L 708,110 L 707,111 L 706,110 L 704,112 L 703,112 L 700,109 L 700,108 L 700,110 L 701,110 L 702,111 L 702,112 L 703,113 L 701,115 L 700,114 L 700,112 L 699,113 L 698,112 L 698,111 L 698,112 L 697,113 L 696,112 L 696,110 L 695,111 L 694,110 L 694,111 L 693,112 L 692,112 L 692,113 L 691,114 L 690,113 L 690,111 L 692,109 L 692,108 L 693,107 L 692,108 L 692,109 L 690,111 L 687,108 L 686,109 L 686,110 L 685,111 L 684,110 L 684,109 L 682,111 L 681,111 L 680,110 L 681,109 L 678,109 L 677,110 L 675,108 L 676,109 L 676,112 L 675,113 L 674,112 L 674,110 L 672,110 L 672,111 L 671,112 L 670,111 L 669,112 L 668,111 L 668,109 L 668,112 L 666,114 L 665,113 L 665,112 L 664,112 L 663,111 L 662,112 L 661,111 L 661,109 L 660,109 L 660,110 L 659,111 L 657,111 L 656,110 L 656,111 L 655,112 L 653,110 L 656,107 L 655,108 L 654,107 L 652,109 L 651,109 L 650,110 L 649,109 L 649,110 L 648,111 L 647,110 L 647,109 L 646,109 L 645,110 L 646,111 L 645,112 L 644,112 L 643,111 L 643,110 L 641,110 L 640,109 L 640,108 L 640,109 L 638,111 L 638,112 L 637,113 L 636,112 L 635,112 L 634,111 L 635,110 L 636,110 L 634,110 L 634,111 L 633,112 L 631,112 L 631,113 L 630,114 L 629,114 L 629,115 L 628,116 L 627,115 L 627,114 L 625,112 L 625,109 L 625,112 L 624,113 L 623,112 L 622,112 L 621,111 L 621,113 L 620,114 L 618,114 L 616,112 L 618,110 L 617,111 L 616,110 L 617,111 L 616,112 L 617,113 L 615,115 L 614,114 L 612,116 L 611,115 L 609,115 L 608,114 L 609,113 L 610,113 L 611,112 L 610,111 L 608,113 L 607,113 L 606,114 L 604,112 L 605,113 L 604,114 L 603,114 L 602,113 L 602,112 L 600,110 L 599,111 L 600,112 L 598,114 L 596,114 L 595,113 L 595,112 L 594,113 L 593,112 L 592,112 L 592,113 L 591,114 L 590,114 L 589,113 L 590,112 L 590,111 L 591,110 L 590,109 L 591,110 L 590,111 L 589,111 L 589,112 L 588,113 L 587,112 L 586,113 L 585,113 L 584,112 L 584,111 L 583,112 L 582,111 L 581,112 L 580,111 L 580,108 L 580,110 L 579,111 L 577,111 L 578,112 L 577,113 L 576,113 L 574,111 L 574,110 L 573,111 L 572,111 L 571,112 L 570,111 L 568,111 L 567,112 L 567,113 L 566,114 L 565,113 L 565,112 L 564,111 L 564,108 L 564,109 L 562,111 L 561,110 L 560,111 L 559,110 L 560,111 L 559,112 L 557,112 L 556,111 L 557,112 L 557,113 L 556,114 L 553,111 L 552,111 L 551,110 L 552,109 L 552,108 L 552,109 L 551,110 L 550,109 L 548,109 L 548,112 L 547,113 L 546,113 L 545,112 L 546,111 L 546,109 L 544,109 L 543,110 L 542,110 L 541,109 L 542,108 L 542,107 L 541,108 L 539,108 L 538,107 L 539,108 L 537,110 L 535,108 L 534,109 L 532,109 L 531,108 L 531,107 L 532,106 L 533,107 L 531,105 L 530,105 L 529,104 L 528,104 L 529,105 L 530,105 L 531,106 L 530,107 L 527,107 L 527,108 L 526,109 L 525,108 L 523,108 L 522,107 L 524,105 L 523,105 L 523,106 L 522,107 L 517,107 L 516,108 L 512,108 L 511,107 L 511,106 L 510,105 L 509,106 L 508,105 L 508,104 L 508,105 L 507,106 L 505,104 L 506,105 L 505,106 L 504,106 L 503,105 L 503,104 L 502,104 L 501,103 L 500,103 L 499,102 Z" /><path d="M 461,101 Z" /><path d="M 508,100 Z" /><path d="M 496,100 Z" /><path d="M 487,99 Z" />
  </g>
</svg>
