<svg id="svg" version="1.1" xmlns="http://www.w3.org/2000/svg" xmlns:xlink="http://www.w3.org/1999/xlink" width="400" height="400" viewBox="0, 0, 400,400"><g id="svgg"><path id="path0" d="M96.582 124.518 C 90.298 124.575,85.156 124.703,85.156 124.802 C 85.156 124.902,86.468 127.124,88.071 129.740 C 89.674 132.357,90.894 134.646,90.782 134.827 C 90.670 135.008,90.759 135.156,90.979 135.156 C 91.199 135.156,91.578 135.529,91.822 135.985 C 92.066 136.440,92.092 136.706,91.880 136.575 C 91.668 136.444,91.309 136.561,91.082 136.834 C 90.764 137.217,90.912 137.329,91.721 137.318 C 92.360 137.310,92.735 137.497,92.676 137.793 C 92.622 138.062,92.722 138.281,92.897 138.281 C 93.396 138.281,94.998 141.357,94.728 141.795 C 94.594 142.011,94.747 142.188,95.068 142.188 C 95.388 142.188,95.772 142.569,95.920 143.036 C 96.068 143.503,96.513 144.233,96.909 144.658 C 97.305 145.083,97.544 145.569,97.439 145.738 C 97.335 145.907,97.502 146.188,97.812 146.363 C 98.121 146.537,98.433 146.943,98.504 147.264 C 98.575 147.586,98.843 148.025,99.100 148.241 C 99.356 148.456,99.620 148.882,99.686 149.186 C 99.751 149.491,100.115 150.064,100.494 150.461 C 101.130 151.128,101.135 151.255,100.560 152.134 C 99.950 153.064,99.959 153.081,100.945 152.902 C 101.667 152.771,101.953 152.888,101.953 153.313 C 101.953 153.639,102.126 153.906,102.336 153.906 C 102.547 153.906,102.827 154.333,102.957 154.854 C 103.088 155.375,103.530 156.105,103.940 156.476 C 104.514 156.995,104.583 157.273,104.240 157.685 C 103.895 158.102,103.920 158.173,104.354 158.007 C 104.979 157.767,106.823 161.107,106.424 161.754 C 106.296 161.960,106.337 162.104,106.514 162.073 C 107.305 161.935,107.838 162.142,107.617 162.500 C 107.484 162.715,107.525 162.891,107.707 162.891 C 108.068 162.891,110.464 166.805,110.174 166.921 C 110.077 166.960,110.298 167.344,110.666 167.773 C 111.034 168.203,111.297 168.643,111.252 168.750 C 111.206 168.857,111.470 169.297,111.837 169.727 C 112.205 170.156,112.499 170.646,112.489 170.815 C 112.480 170.984,112.756 171.405,113.102 171.752 C 113.449 172.098,113.647 172.708,113.543 173.106 C 113.439 173.504,113.482 173.750,113.639 173.653 C 114.300 173.245,116.231 176.679,115.765 177.433 C 115.610 177.684,115.687 177.742,115.955 177.576 C 116.724 177.101,117.286 177.729,116.718 178.430 C 116.439 178.774,116.399 178.944,116.630 178.806 C 116.860 178.668,117.341 178.898,117.700 179.317 C 118.058 179.736,118.222 180.081,118.063 180.084 C 117.904 180.087,117.973 180.219,118.218 180.377 C 118.632 180.645,119.042 181.269,121.096 184.766 C 121.537 185.518,122.430 187.012,123.080 188.086 C 123.729 189.160,124.359 190.347,124.480 190.723 C 124.601 191.099,124.856 191.406,125.046 191.406 C 125.235 191.406,125.391 191.656,125.391 191.962 C 125.391 192.268,125.822 193.031,126.350 193.659 C 127.101 194.551,127.207 194.903,126.839 195.274 C 126.470 195.646,126.498 195.700,126.968 195.521 C 127.390 195.361,127.830 195.790,128.446 196.963 C 129.906 199.744,130.649 200.970,130.957 201.107 C 131.118 201.178,131.250 201.471,131.250 201.758 C 131.250 202.044,131.442 202.343,131.677 202.421 C 131.911 202.499,132.131 203.019,132.165 203.575 C 132.207 204.274,132.398 204.522,132.779 204.376 C 133.131 204.241,133.229 204.330,133.049 204.621 C 132.893 204.872,132.953 205.078,133.180 205.078 C 133.408 205.078,133.594 205.261,133.594 205.485 C 133.594 205.709,133.939 206.263,134.361 206.716 C 134.784 207.169,135.048 207.671,134.950 207.831 C 134.851 207.991,135.033 208.222,135.354 208.345 C 135.675 208.468,135.938 208.926,135.938 209.363 C 135.938 209.799,136.112 210.156,136.326 210.156 C 136.848 210.156,138.412 213.534,138.114 214.017 C 137.984 214.227,138.084 214.526,138.335 214.682 C 138.621 214.858,138.688 214.795,138.514 214.513 C 138.361 214.265,138.418 214.063,138.641 214.063 C 138.865 214.063,139.155 214.489,139.286 215.011 C 139.417 215.532,139.771 216.054,140.074 216.170 C 140.377 216.287,140.625 216.720,140.625 217.133 C 140.625 217.547,140.914 217.996,141.267 218.131 C 141.620 218.267,141.795 218.491,141.657 218.630 C 141.518 218.768,141.690 219.197,142.039 219.583 C 142.416 219.999,142.566 220.562,142.410 220.970 C 142.265 221.347,142.264 221.538,142.409 221.393 C 142.661 221.141,143.750 221.981,143.750 222.429 C 143.750 222.549,144.058 223.007,144.434 223.446 C 144.810 223.885,145.037 224.282,144.940 224.329 C 144.842 224.376,145.106 224.815,145.526 225.306 C 145.946 225.796,146.277 226.323,146.261 226.478 C 146.246 226.632,146.479 227.004,146.780 227.304 C 147.080 227.605,147.245 228.163,147.145 228.545 C 147.021 229.018,147.136 229.172,147.505 229.031 C 147.822 228.909,148.047 229.072,148.047 229.422 C 148.047 229.752,148.293 230.269,148.594 230.570 C 149.523 231.498,151.252 235.101,150.980 235.541 C 150.839 235.770,150.932 235.909,151.188 235.850 C 151.444 235.790,152.003 236.357,152.430 237.109 C 152.858 237.861,153.372 238.538,153.573 238.612 C 153.779 238.688,153.736 238.992,153.477 239.305 C 153.106 239.751,153.133 239.816,153.614 239.631 C 154.050 239.464,154.505 239.995,155.278 241.576 C 155.863 242.772,156.497 243.750,156.686 243.750 C 156.876 243.750,157.031 244.024,157.031 244.359 C 157.031 244.694,156.855 244.859,156.641 244.727 C 156.050 244.361,156.195 245.018,156.901 245.898 C 157.409 246.533,157.483 246.551,157.291 245.996 C 156.829 244.656,157.634 245.342,158.551 247.070 C 159.064 248.037,159.645 248.828,159.843 248.828 C 160.041 248.828,160.094 249.004,159.961 249.219 C 159.828 249.434,159.890 249.609,160.099 249.609 C 160.307 249.609,160.432 250.033,160.375 250.552 C 160.297 251.255,160.421 251.436,160.862 251.267 C 161.318 251.092,161.401 251.243,161.222 251.926 C 161.095 252.413,161.093 252.710,161.217 252.585 C 161.613 252.189,162.944 254.050,162.763 254.745 C 162.651 255.173,162.769 255.341,163.095 255.216 C 163.386 255.104,163.719 255.408,163.877 255.929 C 164.028 256.428,164.473 257.188,164.865 257.617 C 165.257 258.047,165.585 258.532,165.593 258.695 C 165.618 259.157,166.870 261.500,167.211 261.723 C 167.379 261.832,167.975 262.836,168.537 263.954 C 169.098 265.071,169.723 266.088,169.924 266.213 C 170.126 266.337,170.597 267.091,170.971 267.888 C 171.344 268.684,171.876 269.568,172.153 269.852 C 172.430 270.136,172.656 270.619,172.656 270.926 C 172.656 271.233,172.812 271.484,173.002 271.484 C 173.298 271.484,175.781 275.898,175.781 276.424 C 175.781 276.526,175.607 276.501,175.395 276.370 C 175.169 276.230,175.111 276.397,175.254 276.770 C 175.419 277.200,175.588 277.265,175.772 276.968 C 176.065 276.494,177.496 278.466,178.627 280.903 C 178.988 281.679,179.547 282.534,179.871 282.803 C 180.195 283.072,180.364 283.448,180.246 283.638 C 180.128 283.829,180.206 283.984,180.419 283.984 C 180.829 283.984,181.332 285.220,181.453 286.523 C 181.493 286.962,181.770 287.263,182.085 287.209 C 182.394 287.156,182.957 287.640,183.337 288.283 C 183.718 288.927,183.887 289.456,183.713 289.459 C 183.540 289.462,183.584 289.594,183.812 289.752 C 184.890 290.501,185.528 291.934,185.047 292.527 C 184.654 293.012,184.682 293.073,185.205 292.877 C 185.754 292.672,186.987 294.299,186.722 294.878 C 186.683 294.962,186.811 295.137,187.005 295.269 C 187.547 295.636,190.234 300.148,190.234 300.691 C 190.234 300.956,190.410 301.172,190.625 301.172 C 190.840 301.172,191.016 301.436,191.016 301.758 C 191.016 302.080,191.202 302.344,191.429 302.344 C 191.657 302.344,191.734 302.520,191.602 302.734 C 191.469 302.949,191.542 303.125,191.764 303.125 C 192.271 303.125,193.415 305.283,193.083 305.615 C 192.949 305.749,193.021 305.859,193.244 305.859 C 193.467 305.859,194.911 307.969,196.452 310.547 C 197.994 313.125,199.412 315.234,199.603 315.234 C 199.794 315.234,201.464 312.686,203.314 309.570 C 205.164 306.455,206.845 303.906,207.050 303.906 C 207.254 303.906,207.401 303.774,207.376 303.613 C 207.268 302.933,207.462 302.448,208.127 301.734 C 208.515 301.317,208.858 300.840,208.890 300.673 C 209.079 299.659,210.780 297.272,211.199 297.432 C 211.471 297.537,211.814 297.427,211.962 297.188 C 212.118 296.935,212.053 296.864,211.806 297.016 C 210.929 297.558,210.968 296.508,211.864 295.443 C 212.376 294.834,212.820 294.160,212.850 293.945 C 212.880 293.730,213.824 292.090,214.949 290.300 C 216.073 288.510,217.212 286.664,217.480 286.198 C 217.748 285.733,218.157 285.400,218.388 285.459 C 218.619 285.518,218.715 285.415,218.601 285.231 C 218.338 284.806,219.884 281.641,220.353 281.641 C 220.546 281.641,220.703 281.468,220.703 281.258 C 220.703 281.047,221.322 279.907,222.079 278.724 C 222.835 277.541,223.449 276.439,223.443 276.275 C 223.436 276.111,223.696 275.667,224.020 275.289 C 224.344 274.910,224.609 274.461,224.609 274.291 C 224.609 273.586,226.992 270.290,227.344 270.508 C 227.568 270.646,227.619 270.467,227.468 270.073 C 227.326 269.703,227.372 269.502,227.570 269.625 C 227.768 269.747,227.954 269.440,227.984 268.943 C 228.014 268.445,228.893 266.738,229.937 265.147 C 232.673 260.982,232.774 260.822,233.210 259.961 C 233.427 259.531,233.952 258.652,234.375 258.008 C 234.798 257.363,235.334 256.400,235.566 255.867 C 235.797 255.335,236.112 254.807,236.264 254.695 C 236.417 254.584,236.977 253.657,237.509 252.637 C 238.040 251.616,238.607 250.781,238.769 250.781 C 238.930 250.781,239.063 250.587,239.063 250.350 C 239.063 250.112,239.552 249.189,240.150 248.299 C 240.749 247.408,241.473 246.108,241.760 245.410 C 242.047 244.712,242.408 244.141,242.562 244.141 C 242.716 244.141,243.331 243.130,243.929 241.895 C 245.158 239.354,246.042 238.203,246.532 238.506 C 246.716 238.620,246.768 238.457,246.649 238.146 C 246.529 237.834,246.622 237.461,246.855 237.317 C 247.088 237.173,247.177 236.892,247.054 236.692 C 246.930 236.492,247.015 236.328,247.243 236.328 C 247.470 236.328,247.656 236.106,247.656 235.835 C 247.656 235.563,248.276 234.421,249.034 233.296 C 249.791 232.171,250.307 231.250,250.179 231.250 C 249.936 231.250,251.522 228.855,251.989 228.516 C 252.137 228.408,252.664 227.529,253.159 226.563 C 253.654 225.596,254.245 224.676,254.471 224.518 C 254.698 224.360,254.745 224.228,254.576 224.225 C 254.407 224.221,254.465 223.854,254.704 223.407 C 254.943 222.961,255.344 222.675,255.596 222.771 C 255.864 222.874,256.079 222.540,256.114 221.969 C 256.147 221.432,256.382 220.863,256.636 220.706 C 256.890 220.549,257.082 220.264,257.061 220.074 C 257.041 219.883,257.290 219.417,257.614 219.039 C 257.938 218.660,258.203 218.234,258.203 218.093 C 258.203 217.951,258.480 217.529,258.819 217.155 C 259.157 216.781,259.485 216.152,259.548 215.757 C 259.611 215.362,259.935 215.061,260.269 215.088 C 260.638 215.118,260.794 214.923,260.666 214.590 C 260.550 214.289,260.957 213.300,261.570 212.393 C 263.375 209.718,265.350 206.303,265.350 205.859 C 265.349 205.752,266.202 204.412,267.245 202.882 C 268.288 201.352,269.141 199.983,269.141 199.839 C 269.141 199.695,269.469 199.101,269.870 198.519 C 271.575 196.045,273.098 193.505,273.712 192.115 C 274.073 191.295,274.511 190.625,274.685 190.625 C 274.858 190.625,275.000 190.422,275.000 190.174 C 275.000 189.925,275.432 189.156,275.960 188.464 C 276.487 187.772,276.810 187.096,276.676 186.962 C 276.542 186.828,276.637 186.719,276.888 186.719 C 277.139 186.719,277.344 186.455,277.344 186.133 C 277.344 185.811,277.520 185.547,277.734 185.547 C 277.949 185.547,278.125 185.296,278.125 184.989 C 278.125 184.682,278.355 184.199,278.635 183.915 C 278.916 183.631,279.269 183.135,279.421 182.813 C 279.572 182.490,280.043 181.699,280.467 181.055 C 280.891 180.410,281.406 179.504,281.611 179.042 C 281.816 178.579,282.173 178.084,282.404 177.941 C 282.636 177.798,282.724 177.517,282.601 177.317 C 282.477 177.117,282.562 176.953,282.789 176.953 C 283.017 176.953,283.203 176.671,283.203 176.325 C 283.203 175.980,283.423 175.782,283.691 175.885 C 283.994 176.001,284.202 175.701,284.239 175.094 C 284.272 174.557,284.507 173.988,284.761 173.831 C 285.015 173.674,285.216 173.389,285.208 173.199 C 285.200 173.008,285.493 172.453,285.858 171.967 C 286.868 170.621,288.232 168.290,288.711 167.090 C 288.946 166.499,289.298 166.016,289.491 166.016 C 289.685 166.016,289.844 165.752,289.844 165.430 C 289.844 165.107,289.983 164.844,290.153 164.844 C 290.323 164.844,290.953 163.776,291.552 162.470 C 292.364 160.700,292.796 160.156,293.251 160.331 C 293.737 160.518,293.768 160.454,293.405 160.015 C 293.048 159.586,293.084 159.414,293.569 159.228 C 293.911 159.097,294.095 158.836,293.979 158.649 C 293.863 158.461,294.116 157.993,294.540 157.609 C 294.965 157.225,295.313 156.686,295.313 156.413 C 295.313 156.139,295.532 155.675,295.801 155.382 C 296.543 154.573,297.231 153.436,297.700 152.246 C 297.933 151.655,298.292 151.172,298.499 151.172 C 298.705 151.172,298.780 151.020,298.665 150.833 C 298.550 150.647,298.788 150.195,299.193 149.828 C 299.598 149.461,300.037 148.735,300.168 148.213 C 300.298 147.692,300.578 147.266,300.789 147.266 C 300.999 147.266,301.172 147.073,301.172 146.838 C 301.172 146.602,301.518 145.923,301.942 145.329 C 302.365 144.734,302.603 144.140,302.472 144.008 C 302.340 143.876,302.520 143.658,302.872 143.523 C 303.223 143.388,303.430 143.147,303.332 142.987 C 303.233 142.827,303.501 142.322,303.928 141.864 C 304.355 141.406,304.699 140.896,304.692 140.730 C 304.686 140.565,304.982 140.078,305.350 139.648 C 305.718 139.219,305.963 138.811,305.894 138.743 C 305.825 138.674,306.526 137.356,307.452 135.813 C 308.378 134.270,310.239 131.118,311.587 128.809 L 314.038 124.609 297.156 124.574 C 246.567 124.468,106.385 124.429,96.582 124.518 M189.844 159.743 C 189.844 175.284,189.821 175.776,189.024 177.126 C 188.574 177.889,188.048 178.418,187.857 178.299 C 187.666 178.181,187.595 178.313,187.700 178.593 C 187.948 179.252,185.784 182.519,185.356 182.131 C 185.177 181.969,185.151 182.045,185.297 182.300 C 185.586 182.805,182.146 188.672,181.561 188.672 C 181.365 188.672,181.298 188.825,181.414 189.012 C 181.529 189.198,180.840 190.561,179.883 192.039 C 178.925 193.517,178.138 194.946,178.133 195.215 C 178.129 195.483,177.977 195.703,177.797 195.703 C 177.617 195.703,177.264 196.152,177.014 196.702 C 176.742 197.298,176.378 197.588,176.110 197.423 C 175.834 197.252,175.767 197.317,175.936 197.591 C 176.264 198.121,173.107 203.599,172.641 203.311 C 172.464 203.202,172.192 203.318,172.037 203.570 C 171.847 203.876,171.925 203.922,172.272 203.707 C 172.663 203.465,172.715 203.569,172.483 204.135 C 172.315 204.546,172.089 205.190,171.980 205.566 C 171.872 205.942,171.651 206.250,171.488 206.250 C 171.325 206.250,169.464 209.085,167.352 212.550 C 163.815 218.355,163.482 218.777,163.115 217.921 C 162.896 217.410,162.609 216.904,162.477 216.797 C 161.742 216.197,158.988 210.857,159.220 210.482 C 159.379 210.225,159.324 210.142,159.091 210.286 C 158.863 210.426,157.785 209.040,156.631 207.124 C 151.302 198.271,149.621 195.219,149.861 194.831 C 150.011 194.588,149.939 194.523,149.689 194.677 C 149.155 195.007,148.299 193.508,148.675 192.900 C 148.838 192.636,148.775 192.565,148.517 192.724 C 148.280 192.871,147.901 192.646,147.676 192.224 C 147.143 191.228,147.156 190.902,147.717 191.248 C 147.998 191.422,148.061 191.355,147.885 191.070 C 147.729 190.818,147.466 190.697,147.299 190.800 C 147.133 190.903,145.708 188.840,144.133 186.216 C 142.558 183.592,141.112 181.339,140.919 181.210 C 140.727 181.080,140.518 180.328,140.455 179.538 C 140.393 178.748,140.208 177.975,140.044 177.820 C 139.880 177.666,139.873 177.979,140.027 178.516 C 140.294 179.449,140.282 179.457,139.749 178.711 C 138.300 176.682,134.245 169.721,134.245 169.265 C 134.245 168.982,134.120 168.750,133.968 168.750 C 133.465 168.750,129.678 162.050,129.941 161.625 C 130.083 161.395,130.018 161.319,129.796 161.456 C 129.388 161.708,124.876 154.522,124.872 153.613 C 124.871 153.345,124.783 153.212,124.677 153.318 C 124.340 153.655,121.744 149.065,121.696 148.047 C 121.670 147.498,121.439 147.114,121.169 147.170 C 120.905 147.225,120.488 146.830,120.243 146.291 C 119.997 145.753,119.669 145.313,119.514 145.313 C 119.359 145.313,119.140 144.961,119.027 144.531 C 118.824 143.754,119.015 143.750,154.333 143.750 L 189.844 143.750 189.844 159.743 M280.469 143.990 C 280.469 144.708,278.716 147.197,278.355 146.992 C 278.121 146.859,278.055 146.888,278.207 147.057 C 278.626 147.522,277.383 149.680,276.876 149.366 C 276.616 149.206,276.551 149.275,276.715 149.540 C 276.998 149.998,263.172 173.589,262.825 173.242 C 262.718 173.135,262.630 173.279,262.630 173.563 C 262.630 173.848,260.887 176.968,258.757 180.497 C 256.626 184.026,254.642 187.395,254.348 187.983 C 254.054 188.571,253.688 188.974,253.535 188.879 C 253.381 188.784,253.255 188.930,253.255 189.203 C 253.255 190.057,250.647 194.104,250.254 193.861 C 250.048 193.733,249.988 193.805,250.120 194.019 C 250.253 194.234,249.077 196.590,247.508 199.255 C 243.420 206.199,243.121 206.662,242.876 206.418 C 242.755 206.297,242.524 206.413,242.362 206.675 C 242.163 206.997,242.230 207.051,242.568 206.842 C 243.282 206.401,243.132 206.694,239.701 212.436 C 238.011 215.264,236.463 217.578,236.260 217.578 C 236.057 217.578,236.000 217.754,236.133 217.969 C 236.266 218.184,236.228 218.359,236.049 218.359 C 235.498 218.359,230.050 209.346,230.328 208.896 C 230.496 208.625,230.404 208.588,230.072 208.793 C 229.693 209.027,229.624 208.933,229.812 208.442 C 229.953 208.074,229.910 207.870,229.715 207.991 C 229.222 208.295,221.377 195.411,221.719 194.858 C 221.883 194.594,221.824 194.517,221.575 194.670 C 221.060 194.989,218.203 190.413,218.558 189.838 C 218.696 189.616,218.575 189.482,218.291 189.541 C 218.005 189.600,217.797 189.345,217.827 188.969 C 217.856 188.595,217.744 188.374,217.577 188.477 C 217.240 188.685,214.349 184.072,214.333 183.301 C 214.327 183.032,214.234 182.901,214.125 183.010 C 214.017 183.119,212.900 181.477,211.645 179.363 L 209.361 175.518 209.359 164.224 C 209.358 158.012,209.361 150.864,209.366 148.340 L 209.375 143.750 244.922 143.750 C 264.473 143.750,280.469 143.858,280.469 143.990 M201.927 199.799 C 203.070 201.662,203.836 203.313,203.677 203.570 C 203.506 203.848,203.564 203.922,203.826 203.760 C 204.316 203.458,205.058 204.647,204.809 205.335 C 204.720 205.584,204.858 205.919,205.118 206.079 C 205.417 206.264,205.488 206.206,205.311 205.920 C 205.157 205.672,205.118 205.469,205.222 205.469 C 205.766 205.469,208.185 210.152,207.974 210.799 C 207.803 211.326,207.840 211.382,208.110 211.005 C 208.393 210.611,208.681 210.826,209.319 211.907 C 210.269 213.517,210.350 213.838,209.705 213.439 C 209.424 213.265,209.360 213.332,209.537 213.618 C 209.692 213.869,209.959 213.989,210.129 213.884 C 210.589 213.600,214.537 220.251,214.217 220.770 C 214.051 221.037,214.115 221.107,214.376 220.946 C 214.900 220.622,215.992 222.616,215.716 223.394 C 215.610 223.693,215.684 223.838,215.880 223.717 C 216.312 223.450,216.917 224.332,221.408 231.775 L 224.906 237.574 223.396 240.061 C 222.565 241.428,221.839 242.759,221.783 243.018 C 221.619 243.767,220.542 244.817,220.154 244.604 C 219.960 244.498,219.925 244.611,220.076 244.855 C 220.435 245.436,216.420 252.008,215.901 251.687 C 215.677 251.548,215.624 251.635,215.779 251.886 C 215.930 252.131,215.169 253.828,214.089 255.657 C 213.008 257.487,212.252 258.987,212.409 258.990 C 212.567 258.994,212.496 259.125,212.253 259.283 C 211.866 259.534,206.699 268.063,201.586 276.889 C 199.672 280.194,200.184 280.452,196.677 274.414 C 194.068 269.923,190.841 264.477,182.327 250.195 C 178.996 244.609,175.989 239.484,175.644 238.805 L 175.017 237.571 178.764 231.383 C 180.825 227.980,186.391 218.735,191.133 210.840 C 195.875 202.944,199.786 196.484,199.824 196.484 C 199.863 196.484,200.809 197.976,201.927 199.799 " stroke="none" fill="#fcfcfc" fill-rule="evenodd"></path><path id="path1" d="M97.168 124.510 C 99.155 124.581,102.407 124.581,104.395 124.510 C 106.382 124.439,104.756 124.381,100.781 124.381 C 96.807 124.381,95.181 124.439,97.168 124.510 M113.969 124.495 C 114.455 124.588,115.158 124.585,115.532 124.487 C 115.905 124.389,115.508 124.313,114.648 124.317 C 113.789 124.322,113.483 124.402,113.969 124.495 M272.759 124.499 C 273.353 124.589,274.232 124.586,274.712 124.494 C 275.193 124.401,274.707 124.328,273.633 124.330 C 272.559 124.333,272.166 124.409,272.759 124.499 M287.221 124.508 C 288.464 124.586,290.398 124.585,291.518 124.506 C 292.638 124.428,291.621 124.364,289.258 124.365 C 286.895 124.366,285.978 124.430,287.221 124.508 M295.801 124.507 C 297.036 124.585,299.058 124.585,300.293 124.507 C 301.528 124.430,300.518 124.366,298.047 124.366 C 295.576 124.366,294.565 124.430,295.801 124.507 " stroke="none" fill="#f4f6f4" fill-rule="evenodd"></path><path id="path2" d="M88.579 124.495 C 89.065 124.588,89.768 124.585,90.141 124.487 C 90.515 124.389,90.117 124.313,89.258 124.317 C 88.398 124.322,88.093 124.402,88.579 124.495 M91.704 124.495 C 92.190 124.588,92.893 124.585,93.266 124.487 C 93.640 124.389,93.242 124.313,92.383 124.317 C 91.523 124.322,91.218 124.402,91.704 124.495 M305.772 124.505 C 306.691 124.588,308.097 124.587,308.897 124.503 C 309.697 124.419,308.945 124.351,307.227 124.353 C 305.508 124.354,304.853 124.423,305.772 124.505 " stroke="none" fill="#ececec" fill-rule="evenodd"></path><path id="path3" d="" stroke="none" fill="#f4fbfc" fill-rule="evenodd"></path><path id="path4" d="M85.259 124.499 C 85.853 124.589,86.732 124.586,87.212 124.494 C 87.693 124.401,87.207 124.328,86.133 124.330 C 85.059 124.333,84.666 124.409,85.259 124.499 M312.022 124.507 C 313.395 124.603,313.994 124.794,313.817 125.081 C 313.657 125.340,313.731 125.400,314.002 125.233 C 315.030 124.597,314.317 124.223,312.207 124.291 L 309.961 124.363 312.022 124.507 " stroke="none" fill="#e4e8e4" fill-rule="evenodd"></path></g></svg>